<?xml version="1.0" encoding="UTF-8"?>
<svg id="Capa_1" xmlns="http://www.w3.org/2000/svg" viewBox="0 0 1820.39 400.55">
  <path d="M1365.19,400.55c-4.97-2.1-7.28-7.67-6.04-13.02,3.79-16.43,9.23-32.51,11.56-49.22.59-4.22,3.53-9.23-.41-13.58,3.3-7.39,1.37-15.23,1.24-22.72-.53-29.48,5.98-57.8,11.87-86.36,1.73-8.4,5.51-16.69,4.25-26.08-.47,1.96-.88,3.53-1.22,5.12-3.09,14.41-12.46,23.01-25.57,28.8-4.77,2.11-9.66,4.1-14.29,6.51-4.7,2.45-9.53,3.62-14.71,3.44-4.05-.14-7.67,1.77-11.97,2.55.91-3.68,1.75-6.67,5.02-9.41-1.08,2.26-1.69,3.83-.1,5.18,1.51,1.29,2.89.03,4.17-.42,1.53-.53,2.87-1.6,4.29-2.44,2.1,3.68,3.66,3.66,9.11-.48-3.39-.34-6.27,1.44-9.21.57-1.08-2.21-3.42-.31-5.19-1.82,4.91-3.11,10.71-3.02,16.15-6.2-1.11,3.47-5.94,2.05-4.86,4.28,1.47,3.02,3.72-.91,5.8-1.02.15,0,.31.08.5.14.82,1.29-1.58,2.06-.27,3.87,2.38-2.74,6.59-2.89,8.18-6.77.49-1.2,1.74-2.14,3.11-2.29,2.36-.25,3.68-.7,3.02-3.7-.29-1.32,1.32-3.16,3.23-3.17,1.53,0,2.49-.62,3.34-1.69,1.7,2.37,2.29,1.57,4.09-.42,1.54-1.7,2.94-7.01,7.37-3.12.07.06.77-.45,1.06-.79.6-.71.05-.97-.49-1.46-3.37-3.08-5.54.82-8.28,1.32,1.79-3.12,5.31-4.86,6.69-8.33.16-.39.37-1.23,1.28-1,4.99,1.25,5.55.69,6.7-4.83.32-1.56,1.72-2.94,2.78-4.29.58-.75,1.66-1.07,1.68-2.29.02-2.13-1.44-.24-2.03-.78-.72-.66-.3-1.25.1-1.72,5.83-6.89,4.46-16.11,7.77-23.92-3.17,2.47-3.4,7.25-7.4,8.98-.81-1.78,1.35-2.47,1.46-4.41-3.32.49-6.55-2.45-9.98,1.24-1.42,1.53-3.7-.81-3.2-2.69,1-3.79,2.58-7.45,4.25-11.02.51-1.09,2.1-3.78,3.17-.02.22.77.78,1.21,1.41.68.87-.73,1.67-1.62,2.26-2.59.57-.93-.24-1.03-.95-1.04-3.23-.06-.96-1.77-.37-1.92,5.4-1.38,5.95-7.67,10.49-10.08,2.08-1.1,0-10.61-2.29-11.96-12.48-7.37-25.28-5.55-37.71-.37-3.62,1.51-5.84,6.09-9.16,8.67-12.27,9.53-13.73,23.73-16.58,37.33-.37,1.75-.69,4.13,2.9,3.42,2-.4,2.45,1.62,1.7,3.12-1.25,2.48-2.41,5.28-4.39,7.07-6.2,5.59-7.42,12.15-5.94,20.07.51,2.73.26,6.3-1.54,8.96-.72,1.06-.74,2.14-1.11,3.19-1.4,3.91-.32,6.08,4.22,6.14,1.39.02,2.98-.61,4.55.65-4.3,4.29-10.03,2.5-15.12,3.27.27.76.3,1.16.46,1.23,1.4.58,3.9-1.42,4.17,1.79.15,1.81-1.18,1.17-2,1.06-2.45-.34-6-2.4-5.09-3.63,1.97-2.64-.15-3.93-.48-5.69-1.12-5.94-1.1-11.83.24-17.72,3.06-13.4,7.01-26.68,8.94-40.24,1.91-13.4,6.44-25.63,12.12-37.66,2.98-6.31,7.84-9.85,14.22-12.93,10.66-5.15,21.98-6.01,33.1-6.16,7.57-.1,15.43,1.12,23.16,1.84,4.69.43,6.81,4.99,5.71,10.38-.99,4.86-2,9.72-2.92,14.6-.37,1.96,0,3.37,1.58,5.2,3.27,3.78,5.3,8.18,2.5,13.6-2.98,5.77-2.92,12.51-5.2,18.62-6.37,17.07-10.82,34.67-14.08,52.61-1.35,7.44-4.33,14.57-6.12,21.95-1.28,5.27-2.13,10.7-2.63,16.11-1.6,17.27-2.98,34.55-1.97,51.93.09,1.48.4,2.78,1.05,4.21,1.19,2.63,3.62,5.43-.3,8.42-1.15.88-.63,4.07-.71,6.2-.37,9.64-.73,19.41-4.69,28.29-3.52,7.88-1.58,15.74-.88,23.38.65,7.07-.74,11.91-6.84,15.39-.99.57-1.82,1.41-2.73,2.12h-1ZM1382.44,243.98c-3.01,5.61-6.49,30.26-5.14,36.32,1.88-12.59,2.94-24.53,5.14-36.32Z"/>
  <path d="M1648.3,119.6c-1.49-1.86-5.12-2.29-3.86-6,1.6-4.7,5.84-6.84,9.78-7.33,4.95-.61,9.5-1.85,14.21-3.32,6.87-2.16,14.02-.37,20.67,1.42,12.55,3.38,25.58,4.02,38.11,7.4,3.76,1.02,7.09-1.2,10.51-2.26,10.43-3.25,18.18-.71,24,8.45,1.5,2.37,3.72,3.15,6.02,4.07,8.42,3.37,11.45,8.09,11.01,16.91-.12,2.37,2.28,2.93,3.55,4.24,5.57,5.78,5.93,13.1.13,16.75-4.46,2.81-9.43,5.14-14.85,5.31-2.93.09-4.82.99-6.93,2.97-2.74,2.58-6.01,4.74-9.35,6.51-12.2,6.47-23.4,14.41-35.35,23.27,6.01.53,11.23.2,16.17-.85,12.52-2.67,25.23-3.92,37.85-5.81,8.54-1.28,17.15-2.13,25.63-3.68,7.45-1.36,14.31,0,20.53,3.8,6.12,3.75,5.53,12.92-.96,16.54-5.39,3-11.09,5.24-17.58,4.2-3.47-.55-6.98.03-10.42.68-17.1,3.25-34.72,3.39-51.47,8.98-6.42,2.14-13.36,2.58-20.24,2.12-11.35-.75-21.78,5.23-32.81,5.1-8.26-.1-13.75,4.93-20.52,7.46-4.54,1.69-7.01,6.1-7.97,10.8-.9,4.44-3.64,6.8-7.67,7.32-8.59,1.1-16.49,5.2-25.28,5.41-1.5.04-2.95,1.43-4.47,2.09-3.41,1.5-6.2.07-7.45-2.88-1.23-2.89.75-5.28,3.59-6.09,11.07-3.17,17.06-11.85,21.96-21.04,3.17-5.94,6.99-11.26,11.06-16.45,1.33-1.7,1.42-2.73.98-4.71-.9-3.98-.28-7.31,3.74-10.14,8.08-5.7,16.09-11.62,21.54-20.26,1.71-2.71,4.03-5.58,6.78-6.88,1.36-.64,2.8-.87,4.12-2.16,5.23-5.11,7.76-12.08,12.47-17.55,1.62-1.88,2.69-4.16,5.38-4.86.72-.19,1.72-.84,1.87-1.46,1.31-5.27,6.03-7.23,9.69-10.22.83-.68,2.59-.95,2.05-2.33-.33-.85-1.7-1.6-2.73-1.84-9.86-2.27-19.92-3.01-29.98-3.93-8.01-.73-16.21.09-24-2.44-4.04-1.31-7.85-3.15-9.63-7.47,1.88-.44,3.75-.94,5.64-1.3,1.41-.27,1.35-1.29,1.18-2.21-.1-.53-.73-1.38-1.12-1.37-1.92.03-3.11,1.97-5.29,1.96-.94,0-.44,1.97-.29,3.07ZM1738.43,167.5c-.72-1.46-1.75-2.47-3.14-2.27-1.77.26-3.58.79-5.16,1.6-11.75,6.02-21.2,15.22-31.66,23.03-.72.54-1.64,1.37-.72,2.47.85,1.02,1.77.49,2.63-.08,2.9-1.92,5.67-4.07,8.71-5.74,9.67-5.31,19.24-10.77,27.84-17.75.49-.39.96-.81,1.51-1.27ZM1742.4,211.04c-5.08.54-9.03,1.05-12.99,1.36-12.7.99-25.39,1.98-38.1,2.77-2.34.14-3.77,1.23-3.67,3.08.15,2.67,2.57,1.76,4.26,1.71.65-.02,1.39-.1,1.93-.42,7.74-4.62,16.36-3.96,24.83-4.22,7.82-.24,15.65-.32,23.74-4.28ZM1744.72,205.62c-17.81,1.93-35.71,1.79-53.35,4.54,17.95.03,35.83-.66,53.35-4.54ZM1661.26,219.58c10.29-7.07,12.66-19.04,18.22-29.03-7.35,8.89-10.77,20.21-18.22,29.03ZM1715.96,169.97c-6.24.4-8.52,5.49-12.89,6.6-.07.02-.09,1,.14,1.34.65.95,1.49.42,2.12-.04,3.22-2.35,6.4-4.75,10.62-7.9ZM1713.25,156.35c3.1-1.41,5.21-2.93,6.93-5,.57-.69.89-1.47.08-2.14-.23-.19-1.04-.12-1.21.11-1.68,2.26-5.23,2.85-5.8,7.03ZM1737.84,131.59c-3.08-2.17-5.94-3.62-8.5.98,3.01.39,5.75.55,8.5-.98ZM1648.83,231.45c-2.78,2.5-5.43,5.06-5.79,9.95,4.27-2.78,4.36-6.73,5.79-9.95Z"/>
  <path d="M1614.19,177.94c1.15,5.36-4.51,6.13-4.92,10.68,2.19-2.57,4.46-4.18,5.56-6.76,1.9-4.45,5.09-5.82,9.63-4.37,1.89.61,3.81,1.12,5.69,1.78,2.2.77,4.01,2.17,3.67,4.67-.38,2.81-2.67,3.59-5.22,3.51-1.82-.06-3.66-.16-5.45-.48-2.91-.52-4.88.71-5.85,3.25-1.08,2.83,1.37,3.53,3.19,4.68,1.74,1.09,3.71,1.38,5.53,2.12,2.56,1.04,5.42,1.6,7.12,4.21,4.42,6.77,3.04,12.07-4.86,13.91-13.95,3.25-25.64,10.97-37.29,18.38-5.68,3.61-10.84,7.75-17.42,9.63-.73.21-1.8.91-1.88,1.5-1.6,10.95-11.27,10.35-18.47,11.98-10.41,2.36-21.08,3.79-31.76,4.88-7.7.79-14.68-3.58-16.39-11.18-1.61-7.19,3.12-15.11,10.58-16.53,4.81-.91,5.94-2.88,6.14-7.74.83-20.01,3.26-39.95,7.46-59.49,2.84-13.2,10.24-24.98,21.91-32.16,7.19-4.42,14.56-8.79,24.39-9.51,11.35-.83,21.74,1.37,31.41,5.08,8.98,3.44,17.24,10.02,24.34,16.76,7.49,7.1,3.43,18.69-6.69,19.06-15.04.56-29.2,6.08-44.17,6.39-1.42.03-2.9.65-4.21,1.28-5.72,2.75-11.62,5.31-14.78,12.45q-1.32-6.46,13.47-14.5c-6.03-8.41-9.39-7.9-14.64.84-4.17,6.94-5.44,14.62-7.68,22.08-.44,1.47-1.81,3.69.86,4.57,1.43.47,3.46,1.91,4.5,0,.74-1.37,4.5-3.19.17-5.25-1.03-.49.39-2.35,1.47-2.95,1.29-.71,1.75.59,2.03,1.45.25.74.35,1.73.06,2.41-2.14,4.9-2.74,10.22-4.34,15.25-.74,2.31-1.85,4.79.58,6.19,2.96,1.71,6.53.41,7.94-2.13,4.3-7.74,11.64-9.55,19.13-12.54,6.74-2.69,14.05-5.65,19.17-11.72,2.72-3.22,2.09-9.48,8.45-9.51.35,0,.69-.95,1.54-2.19ZM1564.23,151.88c11.11,1.9,20.23-5.06,30.91-4.98-8.44-9.5-23.81-6.98-30.91,4.98ZM1540.1,204.16c-4.9,5.85-4.86,17.78-.35,23.81,1.38-8.18.33-16,.35-23.81ZM1597.43,201.41c-2.87,3.07-5.74,6.14-8.61,9.22,3.7-2.17,7.58-4.13,8.61-9.22Z"/>
  <path d="M114.84,217.11c-1.21,3.48.7,4.74.98,6.45.2,1.26.87,2.78-.65,3.59-1.37.72-2.63-.13-3.54-1.12-3.19-3.48-5.29-7.59-6.62-12.09-1.65-5.55-5.54-9.99-7.12-16.34-6.43,12.9-13.34,24.12-23.83,32.76-7.48,6.16-16.43,8.67-25.56,10.88-4.81,1.16-9.76,3.34-14.55,1.12-6.31-2.92-14.17-1.62-19.4-7.45-2.51-2.8-3.2-5.47-.06-7.79,1.82-1.35.51-2.01-.05-2.61-8.6-9.35-8.61-21.43-10.5-32.88-.32-1.92.41-3.76,1.93-5.4,2.01-2.18,2.26-4.5,1.23-7.79-1.66-5.31-3.86-10.61-1.92-16.8,2.98-9.52,5.44-19.16,11.8-27.12,1.52-1.91-.24-3.77.87-5.95,2.52-4.97,6.48-7.8,11.06-10.32,7.25-3.99,14.28-8.35,23.24-7.05,1.88.27,4.13-1.05,6.03-2,6.49-3.24,14.09-3.58,19.99-8.75,2.84-2.49,7.87-1.87,11.83-3.19,2.93-.98,4.62.68,6.24,3.86,2.54,4.98,1.24,11.01,5.02,15.46.56.66.69,1.9.65,2.85-.64,14.17,5.17,27.15,7.92,40.66,2.22,10.9,7.04,21.27,10.54,31.93,2.63,8.02,5.17,16.07,7.38,24.21,1.38,5.08,4.81,9.06,6.59,13.89.77,2.11,1.8,4.72-.47,5.83-3.35,1.64-5.61,5.67-10.1,4.86-.47-.08-1.27-.4-1.29-.65-.35-5.07-6.33-7.94-5.28-13.57.57-3.04-.91-5.58-2.35-9.48ZM23.94,190.49c.33,9.3,2.68,17.03,6.82,24.14,3.48,5.97,5.63,6.48,11.81,3.55,4.8-2.28,9.52-4.71,13.99-7.64,4.07-2.67,7.43-6.48,10.65-9.69,8.52-8.5,14.66-19.01,15.41-31.82.12-2.14-1.18-3.66-.79-6.12.69-4.32,2.17-9-.47-13.8-1.63-2.97-3.87-6.55-2.52-10.56.43-1.27,1.19-3-.08-3.6-.75-.35-2.67-.24-3.84.87-2.87,2.74-6.2,2.41-9.8,1.66-3.28-.69-6.65-1.91-9.97.73-5.45,4.34-11.53,7.99-15.85,13.56-3.81,4.9-9.46,8.89-11.2,14.76-2.39,8.03-2.95,16.59-4.15,23.96Z"/>
  <path d="M399.33,80.68c-1.4-3.36-2.93-6.68-4.17-10.1-1.06-2.92-.82-5.86,1.72-7.97,2.7-2.25,4.97-.43,7.05,1.31,1.64,1.38,5.66,1.37,3.02,5.45-.44.68,1.65,3.88,2.63,3.53,4.18-1.49,4.35,2.13,5.39,3.99,3.05,5.48,6.67,10.77,7.85,17.07.84,4.51,2.64,8.99,1.17,13.7-.52,1.68.69,2.45,1.63,3.28,5.76,5.04,10.2,10.46,7.08,18.9-.82,2.2,1.19,4.08,2.05,5.98,5.03,11.02,10.92,21.57,16.91,32.12,4.18,7.36,9.6,14.08,12.71,22.04.47,1.2,1.4,2.66.53,3.8-4.29,5.65.22,9.94,2.35,14.38,1.64,3.41,3.84,6.57,5.35,10.09,1.06,2.47.88,4.58-1.63,5.96-2.52,1.37-4.68.94-6.59-1.39-4.41-5.37-6.55-11.78-8.7-18.2-1.46-4.35-3.08-8.65-4.79-13.43-1.43,2.17,1.23,5.3-1.31,5.42-1.78.09-4.66-.82-5.9-3.5-1.7-3.66-3.38-3.13-6.57-1.17-6.23,3.83-8.83,10.45-13.47,15.43-5.68,6.09-13,9.61-20.95,11.78-2.29.63-4.59.08-6.8-.89-3.18-1.39-6.8-2.12-9.57-4.07-6.01-4.23-11.51-8.04-13.11-17.03-1.4-7.83-.74-16.1-4.46-23.95-2.62-5.51-1.78-12.93-1.55-19.46.42-12.06,3-23.86,5.7-35.6.11-.48.15-1.27.44-1.38,4.56-1.79,5.47-6.79,8.46-9.99,1.31-1.41,2.07-4.32,3.47-6.45,2.28-3.48,6.47-5.21,7.67-9.94.68-2.67,4.39-3.88,8.28-1.46-.68-1.82-1.04-2.78-1.39-3.74.81-1.6.42-3.07-.46-4.49ZM425.91,161.67c-5.13-3.13-4.99-3.01-1.16-7.61,2.01-2.41,1.78-6.36-.88-6.95-3.1-.69-2-2.28-1.61-3.22.99-2.4.04-3.45-2.06-3.92-1.81-.41-1.97-1.67-2.45-3.17-1.51-4.82-1.21-10.65-7.14-13.18-1.14-.49-.68-1.84-.55-3.07.35-3.37-1.05-4.98-4.74-3.81-5.14,1.63-9.49,3.99-10.54,9.87-.22,1.21-.57,2.35-1.6,2.97-7.33,4.38-7.5,11.64-7.87,18.91-.11,2.12.08,3.7,2.45,2.19,3.61-2.29,4.17-.06,4.86,2.66.45,1.75,1.27,3.4,1.82,5.13,3.64,11.45,13.45,10.15,22.17,10.24,4.27.05,6.55-4.14,9.32-7.06ZM406.9,185.67c-4.01-1.56-6.98-2.69-10.45-2.74.41,3.95.77,7.41,1.18,11.39,3.3-3.07,6.02-5.61,9.27-8.64ZM377.27,128.91c-2.32,8.98-3.6,18.23-3.16,27.65.04.95-.72,2.73,1.28,2.47,1.32-.18.75-1.57.7-2.48-.51-9.2-.4-18.36,1.17-27.64Z"/>
  <path d="M493.02,92c6.92-8.7,4.71-9.02,17.52-9.76-2.74-3.96-.44-6.08,2.87-7.64,2.27-1.07,4.74-1.46,7.27-1.55,6.11-.2,12.04-.7,17.23-4.77,2.59-2.03,6.42-1.81,9.12-.33,6.38,3.5,13,7.01,16.48,13.94,1.36,2.7,3.41,4.2,6.02,5.55,7.97,4.09,13.04,13.3,9.67,22.49-3.04,8.28-4.7,17.06-7.77,25.32-1.69,4.55-.28,9.98-3.67,13.67-2.04,2.22-3.11,4.08-3.08,7.14.04,4.11.37,8.78-1.4,12.2-2.56,4.95-1.23,10.4-3.66,15.25-2.94,5.87-9.51,7.59-12.99,2.17-2.85-4.44-5.65-9.54-3.74-15.62,1.12-3.57,1.36-7.41,2.08-11.6-2.17,1.23-1.46,3.18-2.34,4.48-1.67-.36-.6-2.49-1.92-2.96-1.39-.49-2.56-1.18-1.59-2.79,1.51-2.5,1.08,1,2.14.78,1.07-.22,1.76-1.15,1.32-1.53-2.51-2.21-.47-2.66.97-4.05,2.91-2.81,2.03-6.05-.16-9.01-.56-.76-1.78-1.33-.78-2.43,1.27-1.4.95,1.38,1.97.84,1.31-.68,2.16-1.08,3.12-2.91,3.27-6.24-.08-12.05,1.07-18.8-2.94,3.41-.99,6.35-.83,10.05-3.16-2.94-2.82-5.72-2.21-8.29.76-3.2.26-6.69,2.02-9.64,1.95-3.27-1.18-5.99-.83-9.34.38-3.55-4.59-3.57-7.04-5.26-3.04-2.1-6.99-3.3-10.5-4.22-2.68-.7-6.52,1.27-9.27,2.98-4.16,2.58-7.73,9.04-9.02,14.49,2.83-1.69,3.22-5.85,7.38-6.63-1.36,3.13-2.61,5.8-3.68,8.54-.39.99-1.11,1.46-1.85,1.19-4.68-1.69-3.82,1.99-4.36,4.34-.15.64-.13,1.59-.53,1.84-4.82,2.99-2.61,8.13-2.66,11.78-.15,11.03.48,22.06-.5,33.11-.28,3.19,1.79,6.31.77,9.75-1.28,4.35-3.47,7.06-8.5,6.38-2.79-.38-5.58-1.55-8.38.56-1.19.9-3.04.16-4.05-1.05-1.32-1.58-2.54-2.85-4.89-2.69-1.49.1-2.41-1.04-2.34-2.63.24-5.71-.62-11.49,2.02-17.02,1.02-2.13,3.16-5.04,1.55-7.06-3.79-4.77-3.56-10.49-4.95-15.83-.29-1.11-.59-2.28-.54-3.41.2-5.03-1.5-10.13-1.29-14.79.77-17.15-5.18-33.81-3.04-50.97.24-1.96-1.59-5.27.06-6,3.96-1.75,1.72-5.34,3.23-7.69,1.08-1.67.67-5.33,3.24-4.74,2.68.61,5.74,1.68,7.09,5.33,2.21,6,2.92,12.2,3.77,18.41.93,6.85,2.72,13.49,4.38,20.42ZM558.64,110.6c.63,4.29-.88,8.04-.4,11.88,1.05-3.77,3.32-7.48.4-11.88Z"/>
  <path d="M218.09,220.12c-7.34-5.9-11.92-13.69-17.72-20.42-7.65-8.89-10.28-19.34-12.62-30.13-.84-3.88-.96,0-1.38.05-2.06.25-1.6-1.43-1.58-2.32.13-6.86-2.49-13.69.95-20.64,1.29-2.6-.34-6.39-.12-9.74.47-7.13,4.78-12.82,6.62-19.38,1.18-4.2,2-7.66,7.8-7.15,2.22.19,4.74-2.1,7-3.46,9.65-5.83,19.63-8.56,30.8-4.42,10.93,4.05,21.9,7.79,30.67,16.03,5.15,4.85,7.94,10.47,7.89,17.52,0,1.49.04,2.99.21,4.47.89,7.6.07,8.88-7.62,10.44-2.17.44-3.59,1.25-4.57,3.26-2.38,4.88-6.55,7.52-11.41,9.82-9.8,4.64-20.02,6.86-30.76,7.18-2.16.06-3.95.11-2.56,3.28,1.13,2.58-.8,5.24.35,8.41,2.89,7.98,9.57,11.74,15.63,16.34.44.33,1.33.38,1.89.19,9.82-3.29,16.07,3.02,22.65,8.38,1.29,1.05,2.39,2.39,2.6,4.14.64,5.53,4.69,5.89,8.49,4.72,5.26-1.63,10.6-2.04,15.96-2.64,3.23-.37,5.88,1.24,8.43,2.58,2.29,1.2,1.68,3.74.59,5.75-1.42,2.62-3.92,4.76-6.49,5.13-6.39.92-12.3,3.68-18.7,4.35-5.65.59-6.89,1.94-6.46,7.56.51,6.57-2.66,9.42-8.62,6.81-5.82-2.55-11.82-5.44-14.78-11.75-.5-1.07-1.23-1.47-2.09-1.91-7.09-3.63-13.82-7.71-18.66-14.28-.52-.71-1.16-1.92-2.35-1.06-1.12.81,1.03,1.59-.04,2.88ZM214.39,154.37c2.88-1.21,4.78-2.53,6.99-2.17,6.81,1.1,12.93-1.69,19.31-3.13,4.22-.95,5.58-3.47,5.3-7.46-.28-4.1.24-8.2-.57-12.33-.88-4.53-7.73-11.75-12.33-11.71-6.66.05-13.28.96-19.33,3.93-2.74,1.35-5.21,3.58-3.66,7.12,2.56,5.83,3.75,11.91,4.46,18.19.26,2.28.82,4.49-.17,7.55ZM253.56,118.37c3.04,6.69,5.26,13.83,10.64,19.12,1.07,1.05-1.6,4.18,1.69,3.32,2.31-.61,2.23-3.55,2.45-5.51.16-1.44-.93-3.09-1.66-4.55-2.81-5.7-8.63-8.33-13.13-12.38ZM246.19,234.86c-1.75-7.52-8.52-9.65-10.96-15.18.39,1.89-4.6,2.61-1.31,4.58,4.35,2.6,7.24,6.67,12.27,10.6ZM230.9,216.06c-3.45-2.78-4.46-7.04-6.72-10.39-1.22-1.8-1.94-1.14-3.05-.53-1.92,1.06-.75,1.67.42,2.01,1.27.37.39,1.44.79,1.94,2.35,2.95,3.84,6.98,8.56,6.97Z"/>
  <path d="M683.92,201.47c-3.64.8-6.53,1.92-8.94-.88-.94-1.09-1.53-1.83-3.2-.98-1.86.96-1.06,2.14-.79,3.34,2.31,10.2,5.07,20.3,9.71,29.7,2.17,4.39,1.96,8.11-.44,12.18-1.21,2.05-2.78,3.45-5,3.66-2.38.22-3.55-1.6-4.07-3.64-.41-1.59-1.99-2.14-2.71-3.54,1.43-1.14,3.09-.13,4.85-.7-3.57-5.09-2.42-11.56-5.39-17.26-.9,3.08.85,5.43.99,7.99.08,1.46,1.05,3.27-.36,4.2-1.62,1.06-3.07-.56-4.27-1.52-1.29-1.03-2.61-2.53-1.01-4.18,1.81-1.86.55-3.42-.25-4.9-1.06-1.97-4.07-3.32-.85-6.16.8-.71-.81-2.96-2.05-3.94-.62-.49-1.62,2.24-2.56.26-.39-.84.91-1.72,1.15-2.51.7-2.36-.56-4.57-2.95-3.34-9.77,4.99-19.05.79-28.57-.66-6.85-1.05-12.27-4.58-16.55-9.36-4.58-5.11-8.06-11.19-11.83-17-3.86-5.95-3.35-12.05-3.73-18.28-.88-14.52-.64-28.98,1.47-43.42,1.02-6.99,2.65-13.77,6.42-19.69,2.98-4.68,7.61-7.31,13.51-6.79,2.55.23,4.03,1.17,3.84-3.43-.22-5.47.06-10.4-3.86-14.7-.59-.65-.6-1.82-.86-2.72,2.19-.99,1.26,1.92,2.75,1.78,1.27-1.26-.45-3.09,1.35-5.24.06,6.62,7.54,7.23,8.56,12.89-1.43-9.37-4.64-18.12-7.84-27.69-.98,4.4-5.48,2.41-6.96,5.21-1.96-1.23-2.07-3.16-2.02-6.07,1.32,2.38,2.78,3.21,4.82,2.04-.3-2.13-2.15-3.99-1.39-6.38-5.24-.9,1.08-5.02-2.14-7.17-3.21-2.15-2.3-6.92-4.15-10.3-.9-1.64-.75-2.87-3.12-3.78-2.73-1.05-4.35-4.19-4.64-7.5,1.81-.48,2.22.86,3.01,1.61.75.72,2.15-.01,2.11-.07-2.81-3.98,3.8-6.42,1.62-10.36-1.15-2.09-1.73-5.36,1.12-5.82,2.81-.45,6.52-2.14,9.04,1.02,1.64,2.06,2.69,4.56,4.27,6.67,2.64,3.52,2.75,6.88,1.09,11.04-1.62,4.04.94,8.15,2.06,12.01,2.67,9.16,6.05,18.12,9.14,27.17.16.47.41.94.45,1.42,1.74,19.16,11.53,36.41,13.23,55.6.35,3.95,2.13,7.65,4.28,11.07,1.3,2.07,2.98,4.03,5.45,3.83,3.38-.28,4.76,2.01,5.34,4.16,2.21,8.2,6.42,15.53,9.81,23.19,2.67,6.03,2.37,11.86,1.57,17.92-.31,2.37.12,4.21,2.25,5.51,1.82,1.12,2.97,2.82,2.94,4.93-.06,3.57,1.63,6.32,4.31,9.59ZM607.9,127.33c-2.75,13.1-4.55,26.09-2.03,39.33.27,1.42.62,3.94,1.78,3.49,4.01-1.56,1.57,1.16,1.2,1.74-.48.74-.97,1.29-.51,2.17,3.27,6.32,6.85,12.63,13.32,16.04,7.15,3.77,15.27,2.69,22.98,2.57,5.69-.09,7.09-2.48,7.13-8.39.04-6.37-1.63-12.3-3.9-18.21-.92-2.4-1.83-4.37-4.95-5.69,5.66,1.54,3.86-2.81,3.24-3.75-3.57-5.44-3.05-11.9-4.96-17.71-.42-1.29-.82-2.44-2.07-3.22-1.09-.68-2.62-6.44-2.58-7.75.11-3.56,1.86-8.31-2.72-9.74-3.73-1.17-5.28-3.19-6.83-6.3-2.8-5.62-5.94-5.52-9.99-.78-2.68,3.14-3.06,6.59-3.47,10.32-.45,4.11-3.56,7.66-2.35,12.77-2.64-2.1-1.23-5.14-3.29-6.9Z"/>
  <path d="M1179.62,200.42c-.89-.51-.38,4.2-2.4,1.12-.65-.99-1.27-2.19-2.64-.99-1.39,1.22-.59,2.66.37,3.43,2.52,2,2.37,5.01,3.24,7.62.34,1,.66,2.51-.97,2.86-1.09.23-1.63-.64-2.06-1.67-6.22-14.89-18.96-25.22-27.25-38.67-1.31-2.12-2.25-2.01-3.9.09-4.81,6.14-6.72,13.65-10.12,20.44-3.67,7.32-9.83,12.43-15.12,18.28-3.15,3.49-8.18,2.4-12.38,2.62-7.86.41-15.51-.4-22.33-5.27-4.08-2.91-6.41-7.25-9.92-10.64-6.45-6.25-10.56-14.59-15.6-22.08-.86-1.28-1.65-2.61-1.45-4.14.66-4.94-1.72-7.3-6.38-7.93-1.21-.16-2.73-.78-2.72-1.85.06-3.49-1.8-6.27-2.89-9.33-.3-.85-.07-1.81.8-2.07,1.57-.47,1.36.88,1.53,1.79.31,1.62.9,3.23.91,4.85.03,4.03,3.33,5.84,5.79,5.08,3.16-.98,2.56,1.35,3.5,2.67.93-5.03.97-5.16-2.51-6.31-2.92-.96.37-2.74-.74-4.14-.67-.83,1.03-2.01,1.71-1.6,4.21,2.54,1.97-1.03,1.91-2.06-.07-1.1-.88-2.16-.98-3.27-.34-3.94-2.61-4.75-5.96-3.83-.54.15-.91,1.08-1.64.5-.57-.45-.44-.98-.16-1.7,1.77-4.61,1.52-9.45.77-14.14-.37-2.34-.22-3.96,1.06-5.95,5.51-8.6,13.94-13.7,22.77-17.6,14.98-6.62,30.03-6.8,43.96,3.39,1.89,1.39,3.24,1.71,5.58.3,8.63-5.19,19.27-2.57,23.89,6.59,4.69,9.27,8.32,19.1,12.06,28.82,3.05,7.93,6.42,15.61,11.58,22.46,5.65,7.5,8.6,16.42,12.31,24.91,1.64,3.77,4,6.89,7.06,9.44,2.48,2.07,3.78,4.12,1.99,7.25-.4.69-.31,1.66-.69,2.37-1.39,2.56-.91,6.77-5.45,6.63-2.73-.08-6.51-5.18-6.81-8.82-.13-1.62-.52-3.25-.43-4.85.08-1.37,2.4-2.14.68-4.6ZM1066.01,124.87c5.14.75,8.33-1.17,11.5-3.25,4.17-2.75,7.71-2.09,10.55,2.11-8.34.28-15.88,2.78-22.76,7.2-4.56,2.93-5,8.48-1.06,11.98,1.24,1.1,2.47,2.21,3.79,3.21.88.66,1.58,1.4,1.17,2.47-.47,1.22-1.7,1-2.56.63-2.4-1.05-4.2-.44-4.02,2.19.28,4.21.43,8.65,5.23,10.94,3.95,1.88,7.49,4.56,9.57,8.47,3.27,6.13,6.35,12.37,9.12,18.74,3.53,8.11,9.56,10.07,16.89,5.12.39-.26.9-.34,1.25-.47,1.86,1.08-1.81,3.43,1.02,4.04,1.9.42,2.9-1.18,3.9-2.52,2.16-2.93,5.46-4.76,7.8-7.3,3.28-3.54,3.02-1,3.62,1.55,6.34-10.9,9.4-22.42,10.31-34.6.34-4.59-1.39-9.47-4.56-11.21-4.62-2.52-6.23-6.94-9.57-10.08-3.82-3.59-8.06-6.62-12.94-8.76-1.65-.72-2.83-2.6-5.11-.77.77-3.31-2.26-9.97-4.31-10.09-10.63-.64-20.34,1.47-28.82,10.42ZM1158.22,171.89c1.06,2.99,1.12,5.67,4.57,5.46-2.01,5.62,3.9,7.18,5.61,10.89.55,1.19,1.35,2.36,1.54,3.61.5,3.28,1.38,6.01,5.41,6.11,1.25.03,2.03,3.04,3.48.87.85-1.27-.12-2.66-.94-4.22-2.55-4.83-8.1-6.95-10.12-12.24-1.61-4.23-4.74-7.55-9.55-10.49ZM1160.12,171.59c.2-4.23-4.34-6.22-1.6-9.6.06-.07-.56-.68-.86-1.04-.21.72-.41,1.44-.69,2.43-1.51-1.64-1.94-3.51-3.92-4.49-1.57-.78-3.03-2.7-3.56-4.42-.9-2.94-.58-3.04-3.18-3.63,3.62,7.24,5.41,15.56,13.8,20.74ZM1080.62,196.92c.06-1.53-1.33-2.25-.58-4.01,1.38-3.23-1.69-5.39-3.58-7.55-1.6-1.83-1.01,3.54-2.87,1.17-1.01-1.29-.7-3.45-2.33-4.54-1.48-.99-1.26.88-1.23,1.03.47,3.07,1.14,6.17,3.51,8.37,2.11,1.95,4.53,3.56,7.08,5.53ZM1066.07,178.64c-.15-3.3,2.43-6.4.41-9.71-.74-1.21-2.14-2.63-2.98-1.25-.88,1.45-3.68,3.3-2.56,4.19,2.39,1.9,2.71,4.85,5.13,6.78ZM1142.59,142.84c.53-3.11,1.06-6.67-1-7.39-2.38-.83-2.57-.85-1.58-3.02.71-1.56-1.23-1.61-2.19-1.96-.97-.36-1.89.34-1.43,1.23,1.88,3.61,2.7,7.87,6.2,11.15Z"/>
  <path d="M1232.95,254.73c.22,3.85-1.25,7.28-3.34,11.39,4.22-1.93,5.59-5.67,8.98-7.84.08,2.06-.43,3.5-1.75,4.76-4.17,4.01-8.02,8.42-13.68,10.53-14.24,5.29-21.32,17.64-28.96,29.42-.87,1.34-1.55,2.8-2.44,4.42,5.31-2.99,4.9-3.19,8.32-10.13.95-1.93,3.57-4.06,5.82-5.51,3.45-2.23,7.03-4.46,10.32-6.75,6.43-4.48,16.13-4.34,19.43-13.27,4.83-.66,7.44-4.56,9.11-8.09,1.73-3.65,5.39-4.55,7.19-7.16,2.29-3.3,4.74-7.02,7.43-9.37,4.12-3.59,7.05-8.78,12.59-10.79,1.93-.7,3.07-2.48,4.27-4.08,1.73-2.31,1.22-3.6-2.86-3.43,2.68-1.72,6.11-.8,5.78-4.79-.31-3.72,2.12-5.83,5.97-6.13,3.4-.27,6.35.58,8.23,3.54,2.03,3.19,2.31,6.56-.15,9.71-2.88,3.69-6.48,6.71-10.61,8.77-10.56,5.24-18.82,13.09-25.67,22.38-7.94,10.77-16.16,20.99-28.61,27.07-7.6,3.71-12.21,10.58-16.38,17.68-3.05,5.18-6.46,10.05-11.51,13.57-8.58,5.98-17.57-.07-20.37-7.02-1.32-3.29-.19-6.13,2.45-8.43,2.95-2.56,5.3-5.32,5.25-9.68-.03-2.25.92-4.66,2.85-6.18,7.24-5.69,9.28-13.85,10.55-22.27,1.86-12.39,6.34-23.72,11.55-35.12,3.86-8.45,10.3-15.26,13.31-24.13,1.34-3.95,5.82-6.09,8.26-9.75,5.12-7.66,8.99-16.08,14.08-23.63,3.83-5.67,6.15-12.52,12.06-16.91,3.45-2.56,4.14-6.73,3.06-11.06-5.35,1.63-.45,9.45-6.7,10.74-.91-3.2,1.99-5.1,2.54-7.85-1.55.22-1.88,2.23-3.45,1.6-.95-2.38,2.63-4.31,1.05-6.36-1.4-1.82-4.46,2.93-6.1-.84-14.02,2.09-28.94-1.26-41.93,7.38-3.2,2.12-7.24,3.12-11.3,3.62-4.54.56-7.38-1.04-8.82-5.27-.41-1.21-.36-2.5-1.77-3.34-1.27-.75-.79-1.75.19-2.81,9.36-10.04,21.21-15.16,34.4-17.94,9.52-2.01,18.9-.44,28.21.92,7.15,1.05,14.1.51,21.13-.23,2.9-.31,5.77-.14,8.63-1.52,5.49-2.64,9.85-1.44,12.84,2.78,2.92,4.11,2.43,10.37-1.19,14.27-1.01,1.09-2.11,2.17-3.35,2.97-5.94,3.85-10.32,8.33-12.75,15.61-1.76,5.26-6.24,9.95-9.58,14.83-1.62,2.37-3.11,4.71-3.9,7.37-1.69,5.7-2.73,11.61-8.53,15.08-1.04.63-1.5,2.54-1.85,3.95-1,4.05-3.55,6.78-7.21,8.34-2.99,1.27-4.1,4.03-6.08,6.08-7.11,7.32-8.35,17.9-15.85,25.32-6.48,6.4-8.25,16.29-10.4,25.98,6.5-1.12,11.83-3.5,16.67-6.9,1.92-1.34,1.11-5.31,4.72-5.34l-.17-.15ZM1194.55,140.25c2.84.83,5.97,1.61,8.15.5,4.95-2.53,10.26-3.29,15.42-4.82,1.56-.46,2.64-1.83,4.87-1.61,8.76.84,17.57,1.45,26.36,1.57,1.84.02,3.32-.03,5.2.51,4.18,1.21,8.61,3.55,12.99.33.48-.35.94-.79,1.23-1.29.07-.12-.85-.98-.88-.96-2.12,1.71-4.72-.25-7.84,1.89,3.07-5.14.96-6.53-2.9-6.69-5.35-.22-10.82.24-16.04-.71-14.77-2.69-28.26.77-41.19,7.5-1.8.94-4.38.88-5.37,3.78Z"/>
  <path d="M780.64,147.41c1.92-6.55,3.64-12.81,9.27-17.67-2.94-1.31-5.74-2.53-6.31-5.77-.6-3.44.45-6.55,1.98-9.57,4.78-9.44,15.08-14.56,25.66-14.34,23.54.5,35.2,15.86,43.22,34.69,4.15,9.75,9.66,18.62,14.26,28.03,4.66,9.54,7.02,19.61,4.47,30.3-.82,3.45-.6,6.78.09,10.3,2.67,13.62,2.86,27.31-.05,40.95-1.52,7.15-6.24,10.68-15.22,10.62-3.89-.03-7.61.41-11.3,1.34-8.61,2.18-16.23-.53-23.41-4.77-18.22-10.76-30.86-26.85-39.22-45.62-5.91-13.29-9.56-27.83-10.55-42.58-1.12-16.68-4.64-32.95-7.57-49.32-.76-4.26-1.52-8.5-.24-12.79.48-1.62,1.05-3.34,3.14-3.33,2.23,0,3.29,1.73,3.56,3.55.47,3.28.76,6.61.75,9.92-.02,8.3,2.18,16.22,3.74,24.27.41,2.1.51,4.28.55,6.42.04,2.16.66,3.9,3.19,5.38ZM785.16,162.53c0,1.48-.29,3.03.05,4.42,2.24,9.13,4.69,18.2,7.2,27.26,3.9,14.08,12.82,24.92,21.52,36.01,1.12,1.43,2.7,1.94,4.17,2.57,6.54,2.8,12.9,5.96,19.63,8.42,7.93,2.9,10.39,2.33,14.6-4.88,5.66-9.7,8.63-20.06,9.09-31.2.31-7.36,2.17-14.63-.77-22.05-2.36-5.96-3.25-12.49-5.31-18.59-1.94-5.77-2.04-12.4-8.62-16.06-11.4-6.33-23.32-11.27-36.01-14.08-9.43-2.09-17.96,1.37-20.34,8.61-2.09,6.36-5.18,12.6-5.22,19.57ZM794.11,126.85c19.81-4.6,35.9,5.53,53.73,12.72-3.54-5.9-5.14-11.26-10.7-14.86-5.03-3.27-9.21-7.97-14.81-10.64-4.46-2.13-8.72-2.78-13.82-1.14-7.18,2.31-11.32,7.09-14.41,13.92ZM866.17,226.71c-2.57,5.39-4.97,10.41-7.39,15.49,2.27.49,2.86-1.74,4.76-2.07-.77,4.73-6.24,2.03-7.57,5.32,8.01,1.45,10.8-4.79,10.21-18.73Z"/>
  <path d="M947.79,117.67c4.6-4.62,6.63-3.83,11.6,4.59-3.18.31-5.36,1.28-2.1,4.43.33.32.74,1.11.6,1.31-3.19,4.44,1.64,7.68,1.74,11.64.05,1.99,1.09,4.02,2.84,5.07,4.6,2.77,6.54,7.21,8.34,11.9.77,2,2.25,3.64,4.05,4.96,1.17.87,2.1,1.61,3.25,0,3.7-5.19,9.67-7.45,14.55-11.13,3.66-2.76,6.62-5.96,8.87-9.93,2.04-3.6,4.2-6.85,8.92-8.01,1.13-.28,3.26-3.64,4.61-5.73,1.69-2.6,5.18-4.22,4.87-8.1-.03-.38,1.44-1.39,1.91-1.23,4.35,1.5,7.07-1.61,10.22-3.44,6.83-3.94,13.89-1.54,16.02,5.56.74,2.47.89,5.18-1,7.09-3.2,3.23-3.89,7.1-3.76,11.75-2.74-1.48-3.11-3.87-3.61-6.18-.23-1.07.42-2.65-.95-3.07-1.46-.44-3.07.18-4.08,1.29-.87.96-1.44,2.12-2.66,2.83-7.01,4.11-11.32,9.96-12.03,18.28-.68,7.95-7.3,11.91-12.02,17.07-3.12,3.42-6.79,6.33-9.99,9.69-4.79,5.02-3.36,11.49-3.59,17.5-.1,2.54-.26,4.94-1.5,7.21-2.84,5.2-6.79,6.41-12.02,3.67-3.2-1.67-6.16-3.61-10.1-3.86-2.9-.19-5.07-2.6-6.56-5.39-3.86-7.21-8.09-13.98-15.96-17.86-3.56-1.75-4.73-6.29-7.35-9.29-2.95-3.37-5.61-7.01-8.71-10.23-5.78-6-4.73-13.42-4.74-20.65,0-4.9.72-9.77.27-14.71-.14-1.6-1.03-4.66,2.82-4.47,1.33.07,1.72-1.96,1.56-2.71-.68-3.15,1.54-5.43,3.44-5.42,3.34.02,7.45-1.41,10.09,2.27.76,1.06,1.43,2.17,2.16,3.3ZM938.52,119.59c-2.76-.4-5.92.23-5.23,2.97,1.1,4.34-.57,9.21,2.9,13.14,2.27,2.58,3.66,5.91,5.8,8.64,5.23,6.68,8.78,14.53,16.49,19.5,3.74,2.42,7.49,6.67,8.24,12.09.1.76,1.99,1.71,1.89,1.31-.47-1.93,5.55-3.57.29-5.51-.86-.32-1.7-1.07-2.22-1.85-5.1-7.65-9.94-15.49-15.27-22.98-2.6-3.65-4.41-7.72-6.96-11.26-1.41-1.96-3.19-3.69-2.26-5.81.77-1.76.41-3.44.81-5.12.84-3.57-.3-5.98-4.47-5.13Z"/>
  <path d="M1479.03,237.81c.25-1.48.84-1.74,1.52-1.86,8.61-1.51,13.73-5.68,14.57-14.3.97-9.93,4.48-19.36,4.67-29.41.22-11.48,1.39-22.98-2.29-34.19-.98,2.6-.67,5.41-.52,8.1.56,9.76-1.21,19.36-1.79,29.04-.57,9.66-4.75,18.53-7.07,27.81-1.24,4.96-5.23,7.07-10.47,8.24-6.45,1.43-13.22,1.17-19.46,3.87-1.16.5-3.61-.63-4.75-1.74-2.21-2.16-3.29-.77-4.93.59,1.93,1.77,4.65.37,6.07,2.34-4.35.98-5.57.64-7.72-2.75-.62-.97-1.32-1.26-2.27-1.6-3.12-1.11-4.71-3.72-5.39-6.68-2.75-12.03-3.24-24.22-3.12-36.56.12-12.4,2.6-24.74.57-37.23-.71-4.38-1.2-8.17-4.83-11.34-4.61-4.01-4.37-5.91-.08-10.16,6.64-6.58,12.36-5.67,16.53,2.51,2.35,4.62,3.45,9.28,1.45,14.33-.42,1.06-.86,2.31-.68,3.37,2.16,12.7-1.66,24.94-2.99,37.35-.99,9.22-.36,18.08,1.97,26.97.89,3.38,2.58,5,6.11,6.16,7.4,2.44,14.55,2.93,22,.7,2.68-.81,4.18-2.25,4.99-4.92,3.28-10.76,7.24-21.45,8-32.7,1.3-19.04,4.32-38.24-2.08-57.04-.14-.41-.46-1.08-.31-1.23,4.13-4.08,5.52-10.68,11.86-12.74,4.67-1.52,8.86.42,10.88,5.21,2.1,4.96,1.94,10.19,2.41,15.45.63,7.08,1.76,14.13,2.2,21.26,1.52,24.96-.84,49.34-10.29,72.76-1.54,3.81-3.48,6.33-7.89,7.23-5.57,1.14-10.7,4.51-16.87,3.16Z"/>
  <path d="M147.8,137.1v-9.87c3.82,4.86,4.3,9.71,3.82,14.17-.87,7.96.83,15.02,3.6,22.45,1.92,5.14,2.22,11.19,2.82,16.82.65,6.05,2.37,11.48,4.62,17.05,2.61,6.46-.98,12.51-3.06,18.46-.76,2.18-3.02,1.65-4.55.19-1.79-1.71-3.43-2.1-6.09-1.46-5.1,1.22-7.83-1.14-8.09-6.39-.1-2.03.12-3.6-2.62-3.63-2.22-.02-2.75-2.02-2.69-3.57.16-3.66-.72-7.22.1-11.02,1.23-5.75-.82-11.41-2.16-17.05-1.85-7.77-3.08-15.42.64-23.3,1.99-4.21.12-9.2-.55-13.73-1.44-9.82-3.84-19.51-4.98-29.36-1.29-11.2-1.24-22.45,1.66-33.57,1.74-6.71.27-13.52-.87-20.21-1.94-11.42-2.07-23.1-5.39-34.34-1.28-4.34.31-9.02-1.24-13.66-1.07-3.2,5.12-6.37,8.45-4.54,4.03,2.21,5.94,5.69,5.61,10.29-.41,5.75.39,11.19,3.51,16.19,2.15,3.45.1,6.9-.73,10.08-1,3.79-.53,7.14.54,10.67,1.64,5.39,3.28,10.79,4.65,16.25.85,3.41.88,6.88-1.19,10.08-2.36,3.66-3.07,8.05-2.34,11.97,1.93,10.44.72,21.11,3.37,31.57,1.56,6.17.5,13.02,3.14,19.47Z"/>
  <path d="M310.77,126.77c1.63-2.67,3.4-5.27,4.83-8.04,1.17-2.28.83-4.4-1.46-6.1-2.75-2.04-3.26-7-1.21-9.58.37-.47.82-.71,1.12-.38,2.77,3.07,3.07-.63,3.33-1.55,1.48-5.19,4.96-6.42,9.78-5.61,4.71.79,7.34,3.74,8.22,8.21,2.6,13.17,6.08,26.11,9.49,39.08,1.62,6.18.63,12.57.67,18.85.02,3.25,1.23,6.54.04,9.88-1.68-.6-.84-2.53-2.15-3.22-.13.12-.45.26-.46.42-.65,13.84,1.27,27.49,3.84,40.98,2.37,12.43,2.31,25.04,4.07,37.47,1.13,8,3.77,15.79,4.88,23.79,2.48,17.87,6.02,35.53,9.28,53.25.42,2.25,1.05,4.43,2.63,6.34,2.5,3.02,1.34,6.62,1.06,10.04-.11,1.33-1.12,1.49-2.15,1.5-2.5,0-5,0-7.49-.06-1.22-.03-2.02-.1-1.78-1.96,1.4-10.64-1.61-20.92-3.15-31.27-2.33-15.64-5.47-31.17-8.33-46.73-.23-1.26.14-3.82-2.83-1.79-.64.44-2.51-3.4-1.89-3.77,5.69-3.31,1.53-7.91,1.32-11.52-.37-6.31-.97-12.79-2.3-18.89-1.08-4.98,1.69-11.29-3.99-15.06,1.68-3.46-.27-7.43,1.46-10.78.46-.9.32-1.01.01-1.82-2.02-5.2-4.99-10.38-1.34-16.08.49-.76-.35-.95-.83-1.37-2.97-2.61-2.35-6.39-2.49-9.63-.16-3.64-.33-7.13-2.5-10.07-1.52-2.06-2.56-3.69-.46-5.98,1.1-1.2,1.41-2.81.24-4.32-.43,2.6-5.22-2.71-4.34,2.38.06.33-.21,1.8-.97.93-1.87-2.16-5.98.07-6.89-3.8,1.62-1.03,3.53,2.49,3.9.74.43-2.06,2-4.62.31-6.79-1.64-2.12-2.24-4.61-3.19-7.15-.22,5.53-3.17,8.79-7.78,11.33-1.97,1.08-3.51,2.05-5.3.6-1.9-1.54.45-2.89.59-4.38.04-.44-.16-.9-.25-1.37-2.14.49-1.11,3.21-3.01,3.76-1.53-.43-1.35-1.56-1.09-2.76.3-1.4.39-2.38-1.64-1.48-1.87.83-2.82-.7-3.29-2.11-1.47-4.47,4.15-13.74,9.54-15.28-4.42-3.66-.39-5.97,1.09-8.95q3.02,6.61,2.86,10.14Z"/>
  <path d="M1027.44,57.69c.62-2.95,5.64-4.91.11-6.65-.03,0,.06-.93.32-1.23.81-.94,1.94-1.66,3.05-.78,3.75,2.98,8.08,2.23,11.88,1.07,4.02-1.22,2.36,4.94,6.33,3.89,1.15-.3,4.6,3.1,7.63,2.58,5.94-1.01,12.18.88,17.93-1.87.51-.24,1.43-.21,1.88.1,6.78,4.72,14.96,3.67,22.3,4,4.16.19,9.11.23,13.6-.74.44-.09.92-.07,1.36,0,2.93.45,5.13,4.67,8.88,1.43,1.23-1.06,1.35,4.48,4.06,1.34.72-.83,4.1,1.57,2.66-2.12,1.99-.37,4.44-2.89,5.58.97,1.45,4.9,4.03,7.3,9.69,6.61,4.94-.6,10.78,4.83,11.69,9.65.84,4.44-1.57,8.18-6.89,10.81-2.59,1.28-5.3,1.94-8.18,1.77-16.76-1-33.3-3.7-49.93-5.86-6.79-.88-13.86-3.77-20.96-.68-1.09.47-2.72.31-3.9-.11-8.42-3.05-17.49-2.82-26.05-5.18-3.82-1.05-7.53-.24-11.06,1.64-1.59.85-3.39,1.44-5.16,1.81-5.97,1.24-10.9-2.97-10.78-9.05.03-1.63,0-3.27-.07-4.9-.12-2.45.9-4.39,3.17-5.06,8.75-2.58,17.67-3.6,26.53-.84,6.12,1.91,12.12,2.29,18.28.25-11.45.73-22.03-6.57-33.97-2.84ZM1127.65,68.76c-5.75-2.62-12.22.34-17.76-3.41,5.1,6.27,11.49,4.67,17.76,3.41ZM1129.78,68.47c3.92-.16,7.67,2.98,12.99,1.14-5.03-2.24-9.06-1.18-12.99-1.14Z"/>
  <path d="M693.12,181.71c.48-7.23-2.95-13.52-4.74-20.2-2.36-8.8-4.54-17.61-4.65-26.8-.08-6.74-2.68-12.97-4.63-19.24-1.3-4.18-1.53-8.74-4.53-12.69-.98-1.29-1.64-7.01,1.63-9.55,2.96-2.31,6.56-1.72,9.94-.79,11.38,3.11,21.01,9.81,31.34,15.11,5.29,2.71,9.79,5.98,13.52,10.51,3.03,3.68,5.57,7.27,4.02,12.57-.66,2.25.15,4.9,1.45,7.11,2.47,4.18,3.71,8.87,5.5,13.33.95,2.37.66,4.53-.65,6.64-1.72,2.78-3.48,2.98-5.95.62-6.17-5.91-10.14-13.31-13.8-20.77-3.99-8.14-10.35-13.6-17.74-18.22-1.84-1.15-4.21-2.56-4.4,1.54-5.11-.75-6,4.34-5.64,6.36.97,5.58.04,11.18,1.37,16.76,2.89,12.07,5.07,24.3,7.55,36.47.16.79.11,1.99.6,2.3,7.02,4.41,2.93,10.29,2.3,15.78-.6,5.26-.38,10.58,1.57,15.58,1.32,3.38,2.48,6.64,2.63,10.37.08,1.95.1,3.26-1.73,3.97-1.82.7-3.5-.15-4.29-1.62-1.32-2.46-2.83-5.12-3.09-7.8-.76-7.69-3.83-14.68-5.74-22-1.27-4.88-2.18-10.14-1.87-15.35Z"/>
  <path d="M327.23,25.35c4.8-.13,7.73,2.18,9.42,5.9,3.34,7.37,1.07,19.62-4.42,25.2-3.32,3.38-15.97,2.94-19.81-1.21-2.91-3.14-7.31-5.22-8.02-10.24-.19-1.35-.84-2.85.36-3.62,3.67-2.34,5.26-6.61,8.77-9.04,1.3-.9,2.64-2.06,3.26.48.26,1.05-.36,2.63,1.59,2.11,1.42-.38,2.46-2.35,2.07-3.03-3.89-6.86,3.08-4.66,5.25-6.36.44-.34,1.29-.17,1.52-.19Z"/>
  <path d="M1233.12,254.89c8.01-9.81,10.81-24.33,26.43-29.08-7.17,8.57-13.31,16.23-19.85,23.54-1.85,2.07-3.48,4.89-6.75,5.39,0,0,.16.15.16.15Z"/>
  <path d="M693.75,224.57c.29,1.56-.05,2.73-1.28,3.13-1.61.54-1.9-.92-2.17-1.98-.82-3.18-1.53-6.38-2.29-9.57-.2-.83-.33-1.7.54-2.17,1.16-.63,1.87.26,2.39,1.06,1.95,2.97,2.45,6.39,2.82,9.53Z"/>
  <path d="M665.85,240.91c-.43,1.01.12,1.77,1.16,2.16,1.2.45,2.39,1,1.21,2.35-1.12,1.28-2.17-.14-2.92-.76-1.14-.95-1.42-2.61-3.82-2-1.46.37-1.07-2.03-.99-3.2.18-2.47,2.27-2.03,3.77-1.96,2.09.1,3.06,1.15,1.6,3.4Z"/>
  <path d="M464.51,227.95c-3.67-.24-7.85-4.48-7.85-7.36,0-.91.02-1.34,1.3-1.22,1.58.16,3.26-.39,3.58,1.95.33,2.45-.08,5.19,2.98,6.62Z"/>
  <path d="M399.33,80.68c.89,1.42,1.28,2.9.46,4.49-5.21-.91-2.91-5.89-6.05-8.75,4.06.16,3.47,3.58,5.59,4.25Z"/>
  <path d="M2.67,186.44v9.61c-2.78-3.4-4.26-6.34,0-9.61Z"/>
  <path d="M538.49,168.8c2.01,3.13,3.03,6.3.35,9.63-2.54-3.27.06-6.49-.35-9.63Z"/>
  <path d="M340.1,254.58c-1.49-1.48-5.22-.61-4.59-4.29.13-.73.4-2.01,1.4-1.47,2.07,1.11,3.4,2.92,3.2,5.76Z"/>
  <path d="M408.32,126.21c-.63,2.14-1.89,3.79-4.12,3.56-2.49-.26-3.17-2.59-3.08-4.6.1-2.34,2.7-2.69,4.19-2.75,1.92-.07,2.74,1.97,3.02,3.78Z"/>
  <path d="M640.5,142.06c-1.3.72-3.06-.16-4.6,1.05-1.5,1.18-2.16-1.42-2.56-2.65-.69-2.14,1.72-1.89,2.38-1.87,1.98.05,4.14.44,4.78,3.47Z"/>
</svg>