<?xml version="1.0" encoding="UTF-8" standalone="no"?>
<!DOCTYPE svg PUBLIC "-//W3C//DTD SVG 1.1//EN" "http://www.w3.org/Graphics/SVG/1.1/DTD/svg11.dtd">
<svg width="100%" height="100%" viewBox="0 0 10117 2228" version="1.1" xmlns="http://www.w3.org/2000/svg" xmlns:xlink="http://www.w3.org/1999/xlink" xml:space="preserve" xmlns:serif="http://www.serif.com/" style="fill-rule:evenodd;clip-rule:evenodd;stroke-linejoin:round;stroke-miterlimit:2;">
    <g transform="matrix(5.55556,0,0,5.55556,0,0)">
        <g transform="matrix(1,0,0,0.968408,0.665361,-3.64633)">
            <path d="M1365.19,400.55C1360.22,398.45 1357.91,392.88 1359.15,387.53C1362.94,371.1 1368.38,355.02 1370.71,338.31C1371.3,334.09 1374.24,329.08 1370.3,324.73C1373.6,317.34 1371.67,309.5 1371.54,302.01C1371.01,272.53 1377.52,244.21 1383.41,215.65C1385.14,207.25 1388.92,198.96 1387.66,189.57C1387.19,191.53 1386.78,193.1 1386.44,194.69C1383.35,209.1 1373.98,217.7 1360.87,223.49C1356.1,225.6 1351.21,227.59 1346.58,230C1341.88,232.45 1337.05,233.62 1331.87,233.44C1327.82,233.3 1324.2,235.21 1319.9,235.99C1320.81,232.31 1321.65,229.32 1324.92,226.58C1323.84,228.84 1323.23,230.41 1324.82,231.76C1326.33,233.05 1327.71,231.79 1328.99,231.34C1330.52,230.81 1331.86,229.74 1333.28,228.9C1335.38,232.58 1336.94,232.56 1342.39,228.42C1339,228.08 1336.12,229.86 1333.18,228.99C1332.1,226.78 1329.76,228.68 1327.99,227.17C1332.9,224.06 1338.7,224.15 1344.14,220.97C1343.03,224.44 1338.2,223.02 1339.28,225.25C1340.75,228.27 1343,224.34 1345.08,224.23C1345.23,224.23 1345.39,224.31 1345.58,224.37C1346.4,225.66 1344,226.43 1345.31,228.24C1347.69,225.5 1351.9,225.35 1353.49,221.47C1353.98,220.27 1355.23,219.33 1356.6,219.18C1358.96,218.93 1360.28,218.48 1359.62,215.48C1359.33,214.16 1360.94,212.32 1362.85,212.31C1364.38,212.31 1365.34,211.69 1366.19,210.62C1367.89,212.99 1368.48,212.19 1370.28,210.2C1371.82,208.5 1373.22,203.19 1377.65,207.08C1377.72,207.14 1378.42,206.63 1378.71,206.29C1379.31,205.58 1378.76,205.32 1378.22,204.83C1374.85,201.75 1372.68,205.65 1369.94,206.15C1371.73,203.03 1375.25,201.29 1376.63,197.82C1376.79,197.43 1377,196.59 1377.91,196.82C1382.9,198.07 1383.46,197.51 1384.61,191.99C1384.93,190.43 1386.33,189.05 1387.39,187.7C1387.97,186.95 1389.05,186.63 1389.07,185.41C1389.09,183.28 1387.63,185.17 1387.04,184.63C1386.32,183.97 1386.74,183.38 1387.14,182.91C1392.97,176.02 1391.6,166.8 1394.91,158.99C1391.74,161.46 1391.51,166.24 1387.51,167.97C1386.7,166.19 1388.86,165.5 1388.97,163.56C1385.65,164.05 1382.42,161.11 1378.99,164.8C1377.57,166.33 1375.29,163.99 1375.79,162.11C1376.79,158.32 1378.37,154.66 1380.04,151.09C1380.55,150 1382.14,147.31 1383.21,151.07C1383.43,151.84 1383.99,152.28 1384.62,151.75C1385.49,151.02 1386.29,150.13 1386.88,149.16C1387.45,148.23 1386.64,148.13 1385.93,148.12C1382.7,148.06 1384.97,146.35 1385.56,146.2C1390.96,144.82 1391.51,138.53 1396.05,136.12C1398.13,135.02 1396.05,125.51 1393.76,124.16C1381.28,116.79 1368.48,118.61 1356.05,123.79C1352.43,125.3 1350.21,129.88 1346.89,132.46C1334.62,141.99 1333.16,156.19 1330.31,169.79C1329.94,171.54 1329.62,173.92 1333.21,173.21C1335.21,172.81 1335.66,174.83 1334.91,176.33C1333.66,178.81 1332.5,181.61 1330.52,183.4C1324.32,188.99 1323.1,195.55 1324.58,203.47C1325.09,206.2 1324.84,209.77 1323.04,212.43C1322.32,213.49 1322.3,214.57 1321.93,215.62C1320.53,219.53 1321.61,221.7 1326.15,221.76C1327.54,221.78 1329.13,221.15 1330.7,222.41C1326.4,226.7 1320.67,224.91 1315.58,225.68C1315.85,226.44 1315.88,226.84 1316.04,226.91C1317.44,227.49 1319.94,225.49 1320.21,228.7C1320.36,230.51 1319.03,229.87 1318.21,229.76C1315.76,229.42 1312.21,227.36 1313.12,226.13C1315.09,223.49 1312.97,222.2 1312.64,220.44C1311.52,214.5 1311.54,208.61 1312.88,202.72C1315.94,189.32 1319.89,176.04 1321.82,162.48C1323.73,149.08 1328.26,136.85 1333.94,124.82C1336.92,118.51 1341.78,114.97 1348.16,111.89C1358.82,106.74 1370.14,105.88 1381.26,105.73C1388.83,105.63 1396.69,106.85 1404.42,107.57C1409.11,108 1411.23,112.56 1410.13,117.95C1409.14,122.81 1408.13,127.67 1407.21,132.55C1406.84,134.51 1407.21,135.92 1408.79,137.75C1412.06,141.53 1414.09,145.93 1411.29,151.35C1408.31,157.12 1408.37,163.86 1406.09,169.97C1399.72,187.04 1395.27,204.64 1392.01,222.58C1390.66,230.02 1387.68,237.15 1385.89,244.53C1384.61,249.8 1383.76,255.23 1383.26,260.64C1381.66,277.91 1380.28,295.19 1381.29,312.57C1381.38,314.05 1381.69,315.35 1382.34,316.78C1383.53,319.41 1385.96,322.21 1382.04,325.2C1380.89,326.08 1381.41,329.27 1381.33,331.4C1380.96,341.04 1380.6,350.81 1376.64,359.69C1373.12,367.57 1375.06,375.43 1375.76,383.07C1376.41,390.14 1375.02,394.98 1368.92,398.46C1367.93,399.03 1367.1,399.87 1366.19,400.58L1365.19,400.58L1365.19,400.55ZM1382.44,243.98C1379.43,249.59 1375.95,274.24 1377.3,280.3C1379.18,267.71 1380.24,255.77 1382.44,243.98Z" style="fill-rule:nonzero;"/>
        </g>
        <g transform="matrix(0.995412,-0.0956866,0.0956866,0.995412,-7.91792,157.255)">
            <path d="M1648.3,119.6C1646.81,117.74 1643.18,117.31 1644.44,113.6C1646.04,108.9 1650.28,106.76 1654.22,106.27C1659.17,105.66 1663.72,104.42 1668.43,102.95C1675.3,100.79 1682.45,102.58 1689.1,104.37C1701.65,107.75 1714.68,108.39 1727.21,111.77C1730.97,112.79 1734.3,110.57 1737.72,109.51C1748.15,106.26 1755.9,108.8 1761.72,117.96C1763.22,120.33 1765.44,121.11 1767.74,122.03C1776.16,125.4 1779.19,130.12 1778.75,138.94C1778.63,141.31 1781.03,141.87 1782.3,143.18C1787.87,148.96 1788.23,156.28 1782.43,159.93C1777.97,162.74 1773,165.07 1767.58,165.24C1764.65,165.33 1762.76,166.23 1760.65,168.21C1757.91,170.79 1754.64,172.95 1751.3,174.72C1739.1,181.19 1727.9,189.13 1715.95,197.99C1721.96,198.52 1727.18,198.19 1732.12,197.14C1744.64,194.47 1757.35,193.22 1769.97,191.33C1778.51,190.05 1787.12,189.2 1795.6,187.65C1803.05,186.29 1809.91,187.65 1816.13,191.45C1822.25,195.2 1821.66,204.37 1815.17,207.99C1809.78,210.99 1804.08,213.23 1797.59,212.19C1794.12,211.64 1790.61,212.22 1787.17,212.87C1770.07,216.12 1752.45,216.26 1735.7,221.85C1729.28,223.99 1722.34,224.43 1715.46,223.97C1704.11,223.22 1693.68,229.2 1682.65,229.07C1674.39,228.97 1668.9,234 1662.13,236.53C1657.59,238.22 1655.12,242.63 1654.16,247.33C1653.26,251.77 1650.52,254.13 1646.49,254.65C1637.9,255.75 1630,259.85 1621.21,260.06C1619.71,260.1 1618.26,261.49 1616.74,262.15C1613.33,263.65 1610.54,262.22 1609.29,259.27C1608.06,256.38 1610.04,253.99 1612.88,253.18C1623.95,250.01 1629.94,241.33 1634.84,232.14C1638.01,226.2 1641.83,220.88 1645.9,215.69C1647.23,213.99 1647.32,212.96 1646.88,210.98C1645.98,207 1646.6,203.67 1650.62,200.84C1658.7,195.14 1666.71,189.22 1672.16,180.58C1673.87,177.87 1676.19,175 1678.94,173.7C1680.3,173.06 1681.74,172.83 1683.06,171.54C1688.29,166.43 1690.82,159.46 1695.53,153.99C1697.15,152.11 1698.22,149.83 1700.91,149.13C1701.63,148.94 1702.63,148.29 1702.78,147.67C1704.09,142.4 1708.81,140.44 1712.47,137.45C1713.3,136.77 1715.06,136.5 1714.52,135.12C1714.19,134.27 1712.82,133.52 1711.79,133.28C1701.93,131.01 1691.87,130.27 1681.81,129.35C1673.8,128.62 1665.6,129.44 1657.81,126.91C1653.77,125.6 1649.96,123.76 1648.18,119.44C1650.06,119 1651.93,118.5 1653.82,118.14C1655.23,117.87 1655.17,116.85 1655,115.93C1654.9,115.4 1654.27,114.55 1653.88,114.56C1651.96,114.59 1650.77,116.53 1648.59,116.52C1647.65,116.52 1648.15,118.49 1648.3,119.59L1648.3,119.6ZM1738.43,167.5C1737.71,166.04 1736.68,165.03 1735.29,165.23C1733.52,165.49 1731.71,166.02 1730.13,166.83C1718.38,172.85 1708.93,182.05 1698.47,189.86C1697.75,190.4 1696.83,191.23 1697.75,192.33C1698.6,193.35 1699.52,192.82 1700.38,192.25C1703.28,190.33 1706.05,188.18 1709.09,186.51C1718.76,181.2 1728.33,175.74 1736.93,168.76C1737.42,168.37 1737.89,167.95 1738.44,167.49L1738.43,167.5ZM1742.4,211.04C1737.32,211.58 1733.37,212.09 1729.41,212.4C1716.71,213.39 1704.02,214.38 1691.31,215.17C1688.97,215.31 1687.54,216.4 1687.64,218.25C1687.79,220.92 1690.21,220.01 1691.9,219.96C1692.55,219.94 1693.29,219.86 1693.83,219.54C1701.57,214.92 1710.19,215.58 1718.66,215.32C1726.48,215.08 1734.31,215 1742.4,211.04ZM1744.72,205.62C1726.91,207.55 1709.01,207.41 1691.37,210.16C1709.32,210.19 1727.2,209.5 1744.72,205.62ZM1661.26,219.58C1671.55,212.51 1673.92,200.54 1679.48,190.55C1672.13,199.44 1668.71,210.76 1661.26,219.58ZM1715.96,169.97C1709.72,170.37 1707.44,175.46 1703.07,176.57C1703,176.59 1702.98,177.57 1703.21,177.91C1703.86,178.86 1704.7,178.33 1705.33,177.87C1708.55,175.52 1711.73,173.12 1715.95,169.97L1715.96,169.97ZM1713.25,156.35C1716.35,154.94 1718.46,153.42 1720.18,151.35C1720.75,150.66 1721.07,149.88 1720.26,149.21C1720.03,149.02 1719.22,149.09 1719.05,149.32C1717.37,151.58 1713.82,152.17 1713.25,156.35ZM1737.84,131.59C1734.76,129.42 1731.9,127.97 1729.34,132.57C1732.35,132.96 1735.09,133.12 1737.84,131.59ZM1648.83,231.45C1646.05,233.95 1643.4,236.51 1643.04,241.4C1647.31,238.62 1647.4,234.67 1648.83,231.45Z" style="fill-rule:nonzero;"/>
        </g>
        <g transform="matrix(1,0,0,1,2.01325,-25.2614)">
            <path d="M1614.19,177.94C1615.34,183.3 1609.68,184.07 1609.27,188.62C1611.46,186.05 1613.73,184.44 1614.83,181.86C1616.73,177.41 1619.92,176.04 1624.46,177.49C1626.35,178.1 1628.27,178.61 1630.15,179.27C1632.35,180.04 1634.16,181.44 1633.82,183.94C1633.44,186.75 1631.15,187.53 1628.6,187.45C1626.78,187.39 1624.94,187.29 1623.15,186.97C1620.24,186.45 1618.27,187.68 1617.3,190.22C1616.22,193.05 1618.67,193.75 1620.49,194.9C1622.23,195.99 1624.2,196.28 1626.02,197.02C1628.58,198.06 1631.44,198.62 1633.14,201.23C1637.56,208 1636.18,213.3 1628.28,215.14C1614.33,218.39 1602.64,226.11 1590.99,233.52C1585.31,237.13 1580.15,241.27 1573.57,243.15C1572.84,243.36 1571.77,244.06 1571.69,244.65C1570.09,255.6 1560.76,253.808 1553.05,253.905C1542.38,254.039 1532.31,254.799 1521.63,254.867C1513.89,254.916 1506.78,257.93 1505.07,250.33C1503.46,243.14 1508.19,235.22 1515.65,233.8C1520.46,232.89 1521.59,230.92 1521.79,226.06C1522.62,206.05 1525.05,186.11 1529.25,166.57C1532.09,153.37 1539.49,141.59 1551.16,134.41C1558.35,129.99 1565.72,125.62 1575.55,124.9C1586.9,124.07 1597.29,126.27 1606.96,129.98C1615.94,133.42 1624.2,140 1631.3,146.74C1638.79,153.84 1634.73,165.43 1624.61,165.8C1609.57,166.36 1595.41,171.88 1580.44,172.19C1579.02,172.22 1577.54,172.84 1576.23,173.47C1570.51,176.22 1564.61,178.78 1561.45,185.92C1560.57,181.613 1565.06,176.78 1574.92,171.42C1568.89,163.01 1565.53,163.52 1560.28,172.26C1556.11,179.2 1554.84,186.88 1552.6,194.34C1552.16,195.81 1550.79,198.03 1553.46,198.91C1554.89,199.38 1556.92,200.82 1557.96,198.91C1558.7,197.54 1562.46,195.72 1558.13,193.66C1557.1,193.17 1558.52,191.31 1559.6,190.71C1560.89,190 1561.35,191.3 1561.63,192.16C1561.88,192.9 1561.98,193.89 1561.69,194.57C1559.55,199.47 1558.95,204.79 1557.35,209.82C1556.61,212.13 1555.5,214.61 1557.93,216.01C1560.89,217.72 1564.46,216.42 1565.87,213.88C1570.17,206.14 1577.51,204.33 1585,201.34C1591.74,198.65 1599.05,195.69 1604.17,189.62C1606.89,186.4 1606.26,180.14 1612.62,180.11C1612.97,180.11 1613.31,179.16 1614.16,177.92L1614.19,177.94ZM1564.23,151.88C1575.34,153.78 1584.46,146.82 1595.14,146.9C1586.7,137.4 1571.33,139.92 1564.23,151.88ZM1540.1,204.16C1535.2,210.01 1535.24,221.94 1539.75,227.97C1541.13,219.79 1540.08,211.97 1540.1,204.16ZM1597.43,201.41C1594.56,204.48 1591.69,207.55 1588.82,210.63C1592.52,208.46 1596.4,206.5 1597.43,201.41Z" style="fill-rule:nonzero;"/>
        </g>
        <g transform="matrix(1.22183,0.241177,-0.174435,0.883706,-55.5494,-73.2446)">
            <path d="M399.33,80.68C398.865,79.563 393.871,67.577 394.67,66.291C395.988,64.172 399.32,63.888 400.638,61.769C401.212,62.187 407.823,66.991 407.823,66.991C407.717,71.146 407.783,71.821 412.039,72.633C413.049,72.826 419.971,84.442 422.82,93.96C425.508,102.941 422.358,107.178 425.62,110.94C432.63,119.026 433.45,119.148 432.7,129.84C432.265,136.047 466.311,189.587 464.9,193.78C461.885,202.741 465.226,202.485 472.6,218.25C474.491,222.292 469.832,225.406 467.446,224.903C462.583,223.877 451.902,194.019 450.89,191.19C450.003,192.535 451.034,194.452 450.655,196.018C448.878,203.372 447.893,193.366 440.954,190.418C434.415,187.639 411.407,240.577 378.111,207.46C373.752,203.124 366.165,166.422 367.2,153.75C368.812,134.003 373.187,116.94 373.34,116.77C395.088,92.592 392.552,83.538 401.22,88.93C400.54,87.11 400.18,86.15 399.83,85.19C400.64,83.59 400.25,82.12 399.37,80.7L399.33,80.68ZM425.91,161.67C425.561,161.457 426.771,157.879 426.64,156.949C426.442,155.545 429.623,162.164 424.723,150.154C423.118,146.222 422.301,144.663 422.389,141.206C421.278,140.151 419.587,139.849 418.476,138.794C417.908,138.254 418.814,137.902 415.838,129.351C414.62,125.852 409.847,122.971 409.645,121.843C409.504,121.057 409.678,120.558 399.011,110.383C393.153,104.795 388.563,123.185 388.12,125.18C387.473,128.095 387.1,131.667 385.665,143.084C384.647,151.182 384.109,156.709 384.743,156.534C387.266,155.836 389.296,161.409 391.335,166.798C391.399,166.967 395.915,175.84 404.032,177.568C416.403,180.202 417.243,170.808 425.93,161.65L425.91,161.67ZM406.9,185.67C399.524,182.8 398.243,183.4 396.45,182.93L397.63,194.32L406.9,185.67ZM377.27,128.91C373.112,145.004 374.017,158.697 374.352,158.887C376.194,159.934 376.139,158.647 376.09,156.55C375.764,142.653 374.943,142.608 377.26,128.91L377.27,128.91Z" style="fill-rule:nonzero;"/>
        </g>
        <g transform="matrix(1.07189,-0.051108,0.0484407,1.01595,-33.3562,57.0081)">
            <path d="M493.02,92C499.94,83.3 497.73,82.98 510.54,82.24C507.8,78.28 510.1,76.16 513.41,74.6C515.68,73.53 518.15,73.14 520.68,73.05C526.79,72.85 532.72,72.35 537.91,68.28C540.5,66.25 544.33,66.47 547.03,67.95C551.793,70.563 559.359,72.294 564.336,75.886C566.026,77.106 567.418,78.541 568.3,80.297C569.66,82.997 571.71,84.497 574.32,85.847C582.29,89.937 587.36,99.147 583.99,108.337C580.95,116.617 579.29,125.397 576.22,133.657C574.53,138.207 577.65,139.538 574.26,143.228C572.22,145.448 560.541,167.565 560.571,170.625C560.611,174.735 557.929,179.253 556.159,182.673C553.599,187.623 550.497,196.203 548.067,201.053C545.127,206.923 533.883,213.606 530.403,208.186C527.553,203.746 529.427,193.683 531.337,187.603C532.457,184.033 540.141,177.215 540.861,173.025C538.691,174.255 539.401,176.205 538.521,177.505C536.851,177.145 537.921,175.015 536.601,174.545C535.211,174.055 532.331,177.463 533.301,175.853C534.811,173.353 536.091,172.755 537.151,172.535C538.221,172.315 538.911,171.385 538.471,171.005C535.961,168.795 538.001,168.345 539.441,166.955C542.351,164.145 552.08,140.648 549.89,137.688C549.33,136.928 548.11,136.358 549.11,135.258C550.38,133.858 550.06,136.638 551.08,136.098C552.39,135.418 553.24,135.018 554.2,133.188C557.47,126.948 554.12,121.138 555.27,114.388C552.33,117.798 554.28,120.738 554.44,124.438C551.28,121.498 551.62,118.718 552.23,116.148C552.99,112.948 552.49,109.458 554.25,106.508C556.2,103.238 553.42,97.168 553.42,97.168C553.42,97.168 546.592,94.998 544.142,93.308C541.102,91.208 534.248,91.257 530.738,90.337C528.058,89.637 522.86,94.65 520.11,96.36C515.95,98.94 512.38,105.4 511.09,110.85C513.92,109.16 514.31,105 518.47,104.22C517.11,107.35 515.86,110.02 514.79,112.76C514.4,113.75 513.68,114.22 512.94,113.95C508.26,112.26 509.12,115.94 508.58,118.29C508.43,118.93 508.45,119.88 508.05,120.13C503.23,123.12 505.44,128.26 505.39,131.91C505.24,142.94 505.87,153.97 504.89,165.02C504.61,168.21 506.68,171.33 505.66,174.77C504.38,179.12 502.19,181.83 497.16,181.15C494.37,180.77 491.58,179.6 488.78,181.71C487.59,182.61 485.74,181.87 484.73,180.66C483.41,179.08 482.19,177.81 479.84,177.97C478.35,178.07 477.43,176.93 477.5,175.34C477.74,169.63 476.88,163.85 479.52,158.32C480.54,156.19 482.68,153.28 481.07,151.26C477.28,146.49 477.51,140.77 476.12,135.43C475.83,134.32 475.53,133.15 475.58,132.02C475.78,126.99 474.08,121.89 474.29,117.23C475.06,100.08 469.11,83.42 471.25,66.26C471.49,64.3 469.66,60.99 471.31,60.26C475.27,58.51 473.03,54.92 474.54,52.57C475.62,50.9 475.21,47.24 477.78,47.83C480.46,48.44 483.52,49.51 484.87,53.16C487.08,59.16 487.79,65.36 488.64,71.57C489.57,78.42 491.36,85.06 493.02,91.99L493.02,92ZM565.024,105.224C565.654,109.514 564.26,112.948 564.74,116.788C565.79,113.018 567.944,109.624 565.024,105.224Z" style="fill-rule:nonzero;"/>
        </g>
        <path d="M218.09,220.12C210.75,214.22 206.17,206.43 200.37,199.7C192.72,190.81 190.09,180.36 187.75,169.57C186.91,165.69 186.79,169.57 186.37,169.62C184.31,169.87 184.77,168.19 184.79,167.3C184.92,160.44 182.3,153.61 185.74,146.66C187.03,144.06 185.4,140.27 185.62,136.92C186.09,129.79 190.4,124.1 192.24,117.54C193.42,113.34 194.24,109.88 200.04,110.39C202.26,110.58 204.78,108.29 207.04,106.93C216.69,101.1 226.67,98.37 237.84,102.51C248.77,106.56 259.74,110.3 268.51,118.54C273.66,123.39 276.45,129.01 276.4,136.06C276.4,137.55 276.44,139.05 276.61,140.53C277.5,148.13 276.68,149.41 268.99,150.97C266.82,151.41 265.4,152.22 264.42,154.23C262.04,159.11 257.87,161.75 253.01,164.05C243.21,168.69 232.99,170.91 222.25,171.23C220.09,171.29 218.3,171.34 219.69,174.51C220.82,177.09 218.89,179.75 220.04,182.92C222.93,190.9 229.61,194.66 235.67,199.26C236.11,199.59 237,199.64 237.56,199.45C247.38,196.16 253.63,202.47 260.21,207.83C261.5,208.88 262.6,210.22 262.81,211.97C263.45,217.5 267.5,217.86 271.3,216.69C276.56,215.06 281.9,214.65 287.26,214.05C290.49,213.68 293.14,215.29 295.69,216.63C297.98,217.83 297.37,220.37 296.28,222.38C294.86,225 292.36,227.14 289.79,227.51C283.4,228.43 277.49,231.19 271.09,231.86C265.44,232.45 264.2,233.8 264.63,239.42C265.14,245.99 261.97,248.84 256.01,246.23C250.19,243.68 244.19,240.79 241.23,234.48C240.73,233.41 240,233.01 239.14,232.57C232.05,228.94 225.32,224.86 220.48,218.29C219.96,217.58 219.32,216.37 218.13,217.23C217.01,218.04 219.16,218.82 218.09,220.11L218.09,220.12ZM214.39,154.37C217.27,153.16 219.17,151.84 221.38,152.2C228.19,153.3 234.31,150.51 240.69,149.07C244.91,148.12 246.27,145.6 245.99,141.61C245.71,137.51 246.23,133.41 245.42,129.28C244.54,124.75 237.69,117.53 233.09,117.57C226.43,117.62 219.81,118.53 213.76,121.5C211.02,122.85 208.55,125.08 210.1,128.62C212.66,134.45 213.85,140.53 214.56,146.81C214.82,149.09 215.38,151.3 214.39,154.36L214.39,154.37ZM253.56,118.37C256.6,125.06 258.82,132.2 264.2,137.49C265.27,138.54 262.6,141.67 265.89,140.81C268.2,140.2 268.12,137.26 268.34,135.3C268.5,133.86 267.41,132.21 266.68,130.75C263.87,125.05 258.05,122.42 253.55,118.37L253.56,118.37ZM246.19,234.86C244.44,227.34 237.67,225.21 235.23,219.68C235.62,221.57 230.63,222.29 233.92,224.26C238.27,226.86 241.16,230.93 246.19,234.86ZM230.9,216.06C227.45,213.28 226.44,209.02 224.18,205.67C222.96,203.87 222.24,204.53 221.13,205.14C219.21,206.2 220.38,206.81 221.55,207.15C222.82,207.52 221.94,208.59 222.34,209.09C224.69,212.04 226.18,216.07 230.9,216.06Z" style="fill-rule:nonzero;"/>
        <g transform="matrix(1.44591,0.380036,-0.274202,1.04325,-215.717,-230.087)">
            <path d="M683.92,201.47C680.28,202.27 677.39,203.39 674.98,200.59C674.04,199.5 673.45,198.76 671.78,199.61C669.92,200.57 670.72,201.75 670.99,202.95C673.3,213.15 676.06,223.25 680.7,232.65C682.87,237.04 682.66,240.76 680.26,244.83C679.05,246.88 677.48,248.28 675.26,248.49C672.88,248.71 671.71,246.89 671.19,244.85C670.78,243.26 669.2,242.71 668.48,241.31C669.91,240.17 671.57,241.18 673.33,240.61C669.76,235.52 670.91,229.05 667.94,223.35C667.04,226.43 668.79,228.78 668.93,231.34C669.01,232.8 669.98,234.61 668.57,235.54C666.95,236.6 665.5,234.98 664.3,234.02C663.01,232.99 661.69,231.49 663.29,229.84C665.1,227.98 663.84,226.42 663.04,224.94C661.98,222.97 658.97,221.62 662.19,218.78C662.99,218.07 661.38,215.82 660.14,214.84C659.52,214.35 658.52,217.08 657.58,215.1C657.19,214.26 658.49,213.38 658.73,212.59C659.43,210.23 658.17,208.02 655.78,209.25C646.01,214.24 636.73,210.04 627.21,208.59C620.36,207.54 614.94,204.01 610.66,199.23C606.08,194.12 602.6,188.04 598.83,182.23C594.97,176.28 595.48,170.18 595.1,163.95C594.22,149.43 594.46,134.97 596.57,120.53C597.59,113.54 599.22,106.76 602.99,100.84C605.97,96.16 610.6,93.53 616.5,94.05C619.05,94.28 620.53,95.22 620.34,90.62C620.12,85.15 620.4,80.22 616.48,75.92C615.89,75.27 615.88,74.1 615.62,73.2C617.81,72.21 616.164,71.957 617.654,71.817C618.924,70.557 617.92,71.89 619.72,69.74C616.632,72.585 623.335,64.008 623.686,69.805C621.485,59.218 623.64,64.51 620.44,54.94C619.46,59.34 617.301,59.921 615.821,62.721C613.861,61.491 611.131,54.095 613.073,55.258C614.393,57.638 613.165,56.505 615.205,55.335C614.905,53.205 614.13,52.13 614.89,49.74C609.65,48.84 615.97,44.72 612.75,42.57C609.54,40.42 610.45,35.65 608.6,32.27C607.7,30.63 607.85,29.4 605.48,28.49C602.75,27.44 601.13,24.3 600.84,20.99C602.65,20.51 603.06,21.85 603.85,22.6C604.6,23.32 606,22.59 605.96,22.53C603.15,18.55 609.76,16.11 607.58,12.17C606.43,10.08 605.85,6.81 608.7,6.35C611.51,5.9 615.22,4.21 617.74,7.37C619.38,9.43 620.43,11.93 622.01,14.04C624.65,17.56 624.76,20.92 623.1,25.08C621.48,29.12 624.04,33.23 625.16,37.09C627.83,46.25 631.21,55.21 634.3,64.26C634.46,64.73 634.71,65.2 634.75,65.68C636.49,84.84 646.28,102.09 647.98,121.28C648.33,125.23 650.11,128.93 652.26,132.35C653.56,134.42 655.24,136.38 657.71,136.18C661.09,135.9 662.47,138.19 663.05,140.34C665.26,148.54 669.47,155.87 672.86,163.53C675.53,169.56 675.23,175.39 674.43,181.45C674.12,183.82 674.55,185.66 676.68,186.96C678.5,188.08 679.65,189.78 679.62,191.89C679.56,195.46 681.25,198.21 683.93,201.48L683.92,201.47ZM607.9,127.33C605.15,140.43 603.35,153.42 605.87,166.66C606.14,168.08 606.49,170.6 607.65,170.15C611.66,168.59 609.22,171.31 608.85,171.89C608.37,172.63 607.88,173.18 608.34,174.06C611.61,180.38 615.19,186.69 621.66,190.1C628.81,193.87 636.93,192.79 644.64,192.67C650.33,192.58 651.73,190.19 651.77,184.28C651.81,177.91 650.14,171.98 647.87,166.07C646.95,163.67 646.04,161.7 642.92,160.38C648.58,161.92 646.78,157.57 646.16,156.63C642.59,151.19 643.11,144.73 641.2,138.92C640.78,137.63 640.38,136.48 639.13,135.7C638.04,135.02 636.51,129.26 636.55,127.95C636.66,124.39 638.41,119.64 633.83,118.21C630.1,117.04 628.55,115.02 627,111.91C624.2,106.29 621.06,106.39 617.01,111.13C614.33,114.27 613.95,117.72 613.54,121.45C613.09,125.56 609.98,129.11 611.19,134.22C608.55,132.12 609.96,129.08 607.9,127.32L607.9,127.33Z" style="fill-rule:nonzero;"/>
        </g>
        <path d="M1179.62,200.42C1178.73,199.91 1179.24,204.62 1177.22,201.54C1176.57,200.55 1175.95,199.35 1174.58,200.55C1173.19,201.77 1173.99,203.21 1174.95,203.98C1177.47,205.98 1177.32,208.99 1178.19,211.6C1178.53,212.6 1178.85,214.11 1177.22,214.46C1176.13,214.69 1175.59,213.82 1175.16,212.79C1168.94,197.9 1156.2,187.57 1147.91,174.12C1146.6,172 1145.66,172.11 1144.01,174.21C1139.2,180.35 1137.29,187.86 1133.89,194.65C1130.22,201.97 1124.06,207.08 1118.77,212.93C1115.62,216.42 1110.59,215.33 1106.39,215.55C1098.53,215.96 1090.88,215.15 1084.06,210.28C1079.98,207.37 1077.65,203.03 1074.14,199.64C1067.69,193.39 1063.58,185.05 1058.54,177.56C1057.68,176.28 1056.89,174.95 1057.09,173.42C1057.75,168.48 1055.37,166.12 1050.71,165.49C1049.5,165.33 1047.98,164.71 1047.99,163.64C1048.05,160.15 1046.19,157.37 1045.1,154.31C1044.8,153.46 1045.03,152.5 1045.9,152.24C1047.47,151.77 1047.26,153.12 1047.43,154.03C1047.74,155.65 1048.33,157.26 1048.34,158.88C1048.37,162.91 1051.67,164.72 1054.13,163.96C1057.29,162.98 1056.69,165.31 1057.63,166.63C1058.56,161.6 1058.6,161.47 1055.12,160.32C1052.2,159.36 1055.49,157.58 1054.38,156.18C1053.71,155.35 1055.41,154.17 1056.09,154.58C1060.3,157.12 1058.06,153.55 1058,152.52C1057.93,151.42 1057.12,150.36 1057.02,149.25C1056.68,145.31 1054.41,144.5 1051.06,145.42C1050.52,145.57 1050.15,146.5 1049.42,145.92C1048.85,145.47 1048.98,144.94 1049.26,144.22C1051.03,139.61 1050.78,134.77 1050.03,130.08C1049.66,127.74 1049.81,126.12 1051.09,124.13C1056.6,115.53 1065.03,110.43 1073.86,106.53C1088.84,99.91 1103.89,99.73 1117.82,109.92C1119.71,111.31 1121.06,111.63 1123.4,110.22C1132.03,105.03 1142.67,107.65 1147.29,116.81C1151.98,126.08 1155.61,135.91 1159.35,145.63C1162.4,153.56 1165.77,161.24 1170.93,168.09C1176.58,175.59 1179.53,184.51 1183.24,193C1184.88,196.77 1187.24,199.89 1190.3,202.44C1192.78,204.51 1194.08,206.56 1192.29,209.69C1191.89,210.38 1191.98,211.35 1191.6,212.06C1190.21,214.62 1190.69,218.83 1186.15,218.69C1183.42,218.61 1179.64,213.51 1179.34,209.87C1179.21,208.25 1178.82,206.62 1178.91,205.02C1178.99,203.65 1181.31,202.88 1179.59,200.42L1179.62,200.42ZM1066.01,124.87C1071.15,125.62 1074.34,123.7 1077.51,121.62C1081.68,118.87 1085.22,119.53 1088.06,123.73C1079.72,124.01 1072.18,126.51 1065.3,130.93C1060.74,133.86 1060.3,139.41 1064.24,142.91C1065.48,144.01 1066.71,145.12 1068.03,146.12C1068.91,146.78 1069.61,147.52 1069.2,148.59C1068.73,149.81 1067.5,149.59 1066.64,149.22C1064.24,148.17 1062.44,148.78 1062.62,151.41C1062.9,155.62 1063.05,160.06 1067.85,162.35C1071.8,164.23 1075.34,166.91 1077.42,170.82C1080.69,176.95 1083.77,183.19 1086.54,189.56C1090.07,197.67 1096.1,199.63 1103.43,194.68C1103.82,194.42 1104.33,194.34 1104.68,194.21C1106.54,195.29 1102.87,197.64 1105.7,198.25C1107.6,198.67 1108.6,197.07 1109.6,195.73C1111.76,192.8 1115.06,190.97 1117.4,188.43C1120.68,184.89 1120.42,187.43 1121.02,189.98C1127.36,179.08 1130.42,167.56 1131.33,155.38C1131.67,150.79 1129.94,145.91 1126.77,144.17C1122.15,141.65 1120.54,137.23 1117.2,134.09C1113.38,130.5 1109.14,127.47 1104.26,125.33C1102.61,124.61 1101.43,122.73 1099.15,124.56C1099.92,121.25 1096.89,114.59 1094.84,114.47C1084.21,113.83 1074.5,115.94 1066.02,124.89L1066.01,124.87ZM1158.22,171.89C1159.28,174.88 1159.34,177.56 1162.79,177.35C1160.78,182.97 1166.69,184.53 1168.4,188.24C1168.95,189.43 1169.75,190.6 1169.94,191.85C1170.44,195.13 1171.32,197.86 1175.35,197.96C1176.6,197.99 1177.38,201 1178.83,198.83C1179.68,197.56 1178.71,196.17 1177.89,194.61C1175.34,189.78 1169.79,187.66 1167.77,182.37C1166.16,178.14 1163.03,174.82 1158.22,171.88L1158.22,171.89ZM1160.12,171.59C1160.32,167.36 1155.78,165.37 1158.52,161.99C1158.58,161.92 1157.96,161.31 1157.66,160.95C1157.45,161.67 1157.25,162.39 1156.97,163.38C1155.46,161.74 1155.03,159.87 1153.05,158.89C1151.48,158.11 1150.02,156.19 1149.49,154.47C1148.59,151.53 1148.91,151.43 1146.31,150.84C1149.93,158.08 1151.72,166.4 1160.11,171.58L1160.12,171.59ZM1080.62,196.92C1080.68,195.39 1079.29,194.67 1080.04,192.91C1081.42,189.68 1078.35,187.52 1076.46,185.36C1074.86,183.53 1075.45,188.9 1073.59,186.53C1072.58,185.24 1072.89,183.08 1071.26,181.99C1069.78,181 1070,182.87 1070.03,183.02C1070.5,186.09 1071.17,189.19 1073.54,191.39C1075.65,193.34 1078.07,194.95 1080.62,196.92ZM1066.07,178.64C1065.92,175.34 1068.5,172.24 1066.48,168.93C1065.74,167.72 1064.34,166.3 1063.5,167.68C1062.62,169.13 1059.82,170.98 1060.94,171.87C1063.33,173.77 1063.65,176.72 1066.07,178.65L1066.07,178.64ZM1142.59,142.84C1143.12,139.73 1143.65,136.17 1141.59,135.45C1139.21,134.62 1139.02,134.6 1140.01,132.43C1140.72,130.87 1138.78,130.82 1137.82,130.47C1136.85,130.11 1135.93,130.81 1136.39,131.7C1138.27,135.31 1139.09,139.57 1142.59,142.85L1142.59,142.84Z" style="fill-rule:nonzero;"/>
        <g transform="matrix(0.993038,0.117797,-0.117797,0.993038,-1019.47,-128.755)">
            <path d="M1179.62,200.42C1178.73,199.91 1179.24,204.62 1177.22,201.54C1176.57,200.55 1175.95,199.35 1174.58,200.55C1173.19,201.77 1173.99,203.21 1174.95,203.98C1177.47,205.98 1177.32,208.99 1178.19,211.6C1178.53,212.6 1178.85,214.11 1177.22,214.46C1176.13,214.69 1175.59,213.82 1175.16,212.79C1168.94,197.9 1156.2,187.57 1147.91,174.12C1146.6,172 1145.66,172.11 1144.01,174.21C1139.2,180.35 1137.29,187.86 1133.89,194.65C1130.22,201.97 1124.06,207.08 1118.77,212.93C1115.62,216.42 1110.59,215.33 1106.39,215.55C1098.53,215.96 1090.88,215.15 1084.06,210.28C1079.98,207.37 1077.65,203.03 1074.14,199.64C1067.69,193.39 1063.58,185.05 1058.54,177.56C1057.68,176.28 1056.89,174.95 1057.09,173.42C1057.75,168.48 1055.37,166.12 1050.71,165.49C1049.5,165.33 1047.98,164.71 1047.99,163.64C1048.05,160.15 1046.19,157.37 1045.1,154.31C1044.8,153.46 1045.03,152.5 1045.9,152.24C1047.47,151.77 1047.26,153.12 1047.43,154.03C1047.74,155.65 1048.33,157.26 1048.34,158.88C1048.37,162.91 1051.67,164.72 1054.13,163.96C1057.29,162.98 1056.69,165.31 1057.63,166.63C1058.56,161.6 1058.6,161.47 1055.12,160.32C1052.2,159.36 1055.49,157.58 1054.38,156.18C1053.71,155.35 1055.41,154.17 1056.09,154.58C1060.3,157.12 1058.06,153.55 1058,152.52C1057.93,151.42 1057.12,150.36 1057.02,149.25C1056.68,145.31 1054.41,144.5 1051.06,145.42C1050.52,145.57 1050.15,146.5 1049.42,145.92C1048.85,145.47 1048.98,144.94 1049.26,144.22C1051.03,139.61 1050.78,134.77 1050.03,130.08C1049.66,127.74 1049.81,126.12 1051.09,124.13C1056.6,115.53 1065.03,110.43 1073.86,106.53C1088.84,99.91 1103.89,99.73 1117.82,109.92C1119.71,111.31 1121.06,111.63 1123.4,110.22C1132.03,105.03 1142.67,107.65 1147.29,116.81C1151.98,126.08 1155.61,135.91 1159.35,145.63C1162.4,153.56 1165.77,161.24 1170.93,168.09C1176.58,175.59 1179.53,184.51 1183.24,193C1184.88,196.77 1187.24,199.89 1190.3,202.44C1192.78,204.51 1194.08,206.56 1192.29,209.69C1191.89,210.38 1191.98,211.35 1191.6,212.06C1190.21,214.62 1190.69,218.83 1186.15,218.69C1183.42,218.61 1179.64,213.51 1179.34,209.87C1179.21,208.25 1178.82,206.62 1178.91,205.02C1178.99,203.65 1181.31,202.88 1179.59,200.42L1179.62,200.42ZM1066.01,124.87C1071.15,125.62 1074.34,123.7 1077.51,121.62C1081.68,118.87 1085.22,119.53 1088.06,123.73C1079.72,124.01 1072.18,126.51 1065.3,130.93C1060.74,133.86 1060.3,139.41 1064.24,142.91C1065.48,144.01 1066.71,145.12 1068.03,146.12C1068.91,146.78 1069.61,147.52 1069.2,148.59C1068.73,149.81 1067.5,149.59 1066.64,149.22C1064.24,148.17 1062.44,148.78 1062.62,151.41C1062.9,155.62 1063.05,160.06 1067.85,162.35C1071.8,164.23 1075.34,166.91 1077.42,170.82C1080.69,176.95 1083.77,183.19 1086.54,189.56C1090.07,197.67 1096.1,199.63 1103.43,194.68C1103.82,194.42 1104.33,194.34 1104.68,194.21C1106.54,195.29 1102.87,197.64 1105.7,198.25C1107.6,198.67 1108.6,197.07 1109.6,195.73C1111.76,192.8 1115.06,190.97 1117.4,188.43C1120.68,184.89 1120.42,187.43 1121.02,189.98C1127.36,179.08 1130.42,167.56 1131.33,155.38C1131.67,150.79 1129.94,145.91 1126.77,144.17C1122.15,141.65 1120.54,137.23 1117.2,134.09C1113.38,130.5 1109.14,127.47 1104.26,125.33C1102.61,124.61 1101.43,122.73 1099.15,124.56C1099.92,121.25 1096.89,114.59 1094.84,114.47C1084.21,113.83 1074.5,115.94 1066.02,124.89L1066.01,124.87ZM1158.22,171.89C1159.28,174.88 1159.34,177.56 1162.79,177.35C1160.78,182.97 1166.69,184.53 1168.4,188.24C1168.95,189.43 1169.75,190.6 1169.94,191.85C1170.44,195.13 1171.32,197.86 1175.35,197.96C1176.6,197.99 1177.38,201 1178.83,198.83C1179.68,197.56 1178.71,196.17 1177.89,194.61C1175.34,189.78 1169.79,187.66 1167.77,182.37C1166.16,178.14 1163.03,174.82 1158.22,171.88L1158.22,171.89ZM1160.12,171.59C1160.32,167.36 1155.78,165.37 1158.52,161.99C1158.58,161.92 1157.96,161.31 1157.66,160.95C1157.45,161.67 1157.25,162.39 1156.97,163.38C1155.46,161.74 1155.03,159.87 1153.05,158.89C1151.48,158.11 1150.02,156.19 1149.49,154.47C1148.59,151.53 1148.91,151.43 1146.31,150.84C1149.93,158.08 1151.72,166.4 1160.11,171.58L1160.12,171.59ZM1080.62,196.92C1080.68,195.39 1079.29,194.67 1080.04,192.91C1081.42,189.68 1078.35,187.52 1076.46,185.36C1074.86,183.53 1075.45,188.9 1073.59,186.53C1072.58,185.24 1072.89,183.08 1071.26,181.99C1069.78,181 1070,182.87 1070.03,183.02C1070.5,186.09 1071.17,189.19 1073.54,191.39C1075.65,193.34 1078.07,194.95 1080.62,196.92ZM1066.07,178.64C1065.92,175.34 1068.5,172.24 1066.48,168.93C1065.74,167.72 1064.34,166.3 1063.5,167.68C1062.62,169.13 1059.82,170.98 1060.94,171.87C1063.33,173.77 1063.65,176.72 1066.07,178.65L1066.07,178.64ZM1142.59,142.84C1143.12,139.73 1143.65,136.17 1141.59,135.45C1139.21,134.62 1139.02,134.6 1140.01,132.43C1140.72,130.87 1138.78,130.82 1137.82,130.47C1136.85,130.11 1135.93,130.81 1136.39,131.7C1138.27,135.31 1139.09,139.57 1142.59,142.85L1142.59,142.84Z" style="fill-rule:nonzero;"/>
        </g>
        <g transform="matrix(1,0,0,1,2.94742,-25.8299)">
            <path d="M1232.95,254.73C1233.17,258.58 1231.7,262.01 1229.61,266.12C1233.83,264.19 1235.2,260.45 1238.59,258.28C1238.67,260.34 1238.16,261.78 1236.84,263.04C1232.67,267.05 1228.82,271.46 1223.16,273.57C1208.92,278.86 1201.84,291.21 1194.2,302.99C1193.33,304.33 1192.65,305.79 1191.76,307.41C1197.07,304.42 1196.66,304.22 1200.08,297.28C1201.03,295.35 1203.65,293.22 1205.9,291.77C1209.35,289.54 1212.93,287.31 1216.22,285.02C1222.65,280.54 1232.35,280.68 1235.65,271.75C1240.48,271.09 1243.09,267.19 1244.76,263.66C1246.49,260.01 1250.15,259.11 1251.95,256.5C1254.24,253.2 1256.69,249.48 1259.38,247.13C1263.5,243.54 1266.43,238.35 1271.97,236.34C1273.9,235.64 1275.04,233.86 1276.24,232.26C1277.97,229.95 1277.46,228.66 1273.38,228.83C1276.06,227.11 1279.49,228.03 1279.16,224.04C1278.85,220.32 1281.28,218.21 1285.13,217.91C1288.53,217.64 1291.48,218.49 1293.36,221.45C1295.39,224.64 1295.67,228.01 1293.21,231.16C1290.33,234.85 1286.73,237.87 1282.6,239.93C1272.04,245.17 1263.78,253.02 1256.93,262.31C1248.99,273.08 1240.77,283.3 1228.32,289.38C1220.72,293.09 1216.11,299.96 1211.94,307.06C1208.89,312.24 1205.48,317.11 1200.43,320.63C1191.85,326.61 1182.86,320.56 1180.06,313.61C1178.74,310.32 1179.87,307.48 1182.51,305.18C1185.46,302.62 1187.81,299.86 1187.76,295.5C1187.73,293.25 1188.68,290.84 1190.61,289.32C1197.85,283.63 1199.89,275.47 1201.16,267.05C1203.02,254.66 1207.5,243.33 1212.71,231.93C1216.57,223.48 1223.01,216.67 1226.02,207.8C1227.36,203.85 1231.84,201.71 1234.28,198.05C1239.4,190.39 1243.27,181.97 1248.36,174.42C1252.19,168.75 1254.51,161.9 1260.42,157.51C1263.87,154.95 1264.56,150.78 1263.48,146.45C1258.13,148.08 1263.03,155.9 1256.78,157.19C1255.87,153.99 1258.77,152.09 1259.32,149.34C1257.77,149.56 1257.44,151.57 1255.87,150.94C1254.92,148.56 1258.5,146.63 1256.92,144.58C1255.52,142.76 1252.46,147.51 1250.82,143.74C1236.8,145.83 1221.88,142.48 1208.89,151.12C1205.69,153.24 1201.65,154.24 1197.59,154.74C1193.05,155.3 1190.21,153.7 1188.77,149.47C1188.36,148.26 1188.41,146.97 1187,146.13C1185.73,145.38 1186.21,144.38 1187.19,143.32C1196.55,133.28 1208.4,128.16 1221.59,125.38C1231.11,123.37 1240.49,124.94 1249.8,126.3C1256.95,127.35 1263.9,126.81 1270.93,126.07C1273.83,125.76 1276.7,125.93 1279.56,124.55C1285.05,121.91 1289.41,123.11 1292.4,127.33C1295.32,131.44 1294.83,137.7 1291.21,141.6C1290.2,142.69 1289.1,143.77 1287.86,144.57C1281.92,148.42 1277.54,152.9 1275.11,160.18C1273.35,165.44 1268.87,170.13 1265.53,175.01C1263.91,177.38 1262.42,179.72 1261.63,182.38C1259.94,188.08 1258.9,193.99 1253.1,197.46C1252.06,198.09 1251.6,200 1251.25,201.41C1250.25,205.46 1247.7,208.19 1244.04,209.75C1241.05,211.02 1239.94,213.78 1237.96,215.83C1230.85,223.15 1229.61,233.73 1222.11,241.15C1215.63,247.55 1213.86,257.44 1211.71,267.13C1218.21,266.01 1223.54,263.63 1228.38,260.23C1230.3,258.89 1229.49,254.92 1233.1,254.89L1232.93,254.74L1232.95,254.73ZM1194.55,140.25C1197.39,141.08 1200.52,141.86 1202.7,140.75C1207.65,138.22 1212.96,137.46 1218.12,135.93C1219.68,135.47 1220.76,134.1 1222.99,134.32C1231.75,135.16 1240.56,135.77 1249.35,135.89C1251.19,135.91 1252.67,135.86 1254.55,136.4C1258.73,137.61 1263.16,139.95 1267.54,136.73C1268.02,136.38 1268.48,135.94 1268.77,135.44C1268.84,135.32 1267.92,134.46 1267.89,134.48C1265.77,136.19 1263.17,134.23 1260.05,136.37C1263.12,131.23 1261.01,129.84 1257.15,129.68C1251.8,129.46 1246.33,129.92 1241.11,128.97C1226.34,126.28 1212.85,129.74 1199.92,136.47C1198.12,137.41 1195.54,137.35 1194.55,140.25Z" style="fill-rule:nonzero;"/>
        </g>
        <g transform="matrix(0.946143,0.1131,-0.0997312,0.834307,89.3186,-72.4868)">
            <path d="M780.64,147.41C782.56,140.86 784.28,134.6 789.91,129.74C786.97,128.43 784.17,127.21 783.6,123.97C783,120.53 784.05,117.42 785.58,114.4C790.36,104.96 800.66,99.84 811.24,100.06C834.78,100.56 846.44,115.92 854.46,134.75C858.61,144.5 864.12,153.37 868.72,162.78C873.38,172.32 875.74,182.39 873.19,193.08C872.37,196.53 872.59,199.86 873.28,203.38C875.95,217 876.14,230.69 873.23,244.33C871.71,251.48 866.99,255.01 858.01,254.95C854.12,254.92 850.4,255.36 846.71,256.29C838.1,258.47 830.48,255.76 823.3,251.52C805.08,240.76 792.44,224.67 784.08,205.9C778.17,192.61 774.52,178.07 773.53,163.32C772.41,146.64 768.89,130.37 765.96,114C765.2,109.74 764.44,105.5 765.72,101.21C766.2,99.59 766.77,97.87 768.86,97.88C771.09,97.88 772.15,99.61 772.42,101.43C772.89,104.71 773.18,108.04 773.17,111.35C773.15,119.65 775.35,127.57 776.91,135.62C777.32,137.72 777.42,139.9 777.46,142.04C777.5,144.2 778.12,145.94 780.65,147.42L780.64,147.41ZM785.16,162.53C785.16,164.01 784.87,165.56 785.21,166.95C787.45,176.08 791.791,183.873 794.301,192.933C798.201,207.013 804.034,214.188 812.734,225.278C813.854,226.708 816.63,232.16 818.1,232.79C824.64,235.59 831,238.75 837.73,241.21C845.66,244.11 848.12,243.54 852.33,236.33C857.99,226.63 860.96,216.27 861.42,205.13C861.73,197.77 863.59,190.5 860.65,183.08C858.29,177.12 857.4,170.59 855.34,164.49C853.4,158.72 853.3,152.09 846.72,148.43C835.32,142.1 823.4,137.16 810.71,134.35C801.28,132.26 792.75,135.72 790.37,142.96C788.28,149.32 785.19,155.56 785.15,162.53L785.16,162.53ZM794.11,126.85C813.92,122.25 830.01,132.38 847.84,139.57C844.3,133.67 842.7,128.31 837.14,124.71C832.11,121.44 827.93,116.74 822.33,114.07C817.87,111.94 813.61,111.29 808.51,112.93C801.33,115.24 797.19,120.02 794.1,126.85L794.11,126.85ZM866.17,226.71C863.6,232.1 861.2,237.12 858.78,242.2C861.05,242.69 861.64,240.46 863.54,240.13C862.77,244.86 857.3,242.16 855.97,245.45C863.98,246.9 866.77,240.66 866.18,226.72L866.17,226.71Z" style="fill-rule:nonzero;"/>
        </g>
        <path d="M947.79,117.67C952.39,113.05 954.42,113.84 959.39,122.26C956.21,122.57 954.03,123.54 957.29,126.69C957.62,127.01 958.03,127.8 957.89,128C954.7,132.44 959.53,135.68 959.63,139.64C959.68,141.63 960.72,143.66 962.47,144.71C967.07,147.48 969.01,151.92 970.81,156.61C971.58,158.61 973.06,160.25 974.86,161.57C976.03,162.44 976.96,163.18 978.11,161.57C981.81,156.38 987.78,154.12 992.66,150.44C996.32,147.68 999.28,144.48 1001.53,140.51C1003.57,136.91 1005.73,133.66 1010.45,132.5C1011.58,132.22 1013.71,128.86 1015.06,126.77C1016.75,124.17 1020.24,122.55 1019.93,118.67C1019.9,118.29 1021.37,117.28 1021.84,117.44C1026.19,118.94 1028.91,115.83 1032.06,114C1038.89,110.06 1045.95,112.46 1048.08,119.56C1048.82,122.03 1048.97,124.74 1047.08,126.65C1043.88,129.88 1043.19,133.75 1043.32,138.4C1040.58,136.92 1040.21,134.53 1039.71,132.22C1039.48,131.15 1040.13,129.57 1038.76,129.15C1037.3,128.71 1035.69,129.33 1034.68,130.44C1033.81,131.4 1033.24,132.56 1032.02,133.27C1025.01,137.38 1020.7,143.23 1019.99,151.55C1019.31,159.5 1012.69,163.46 1007.97,168.62C1004.85,172.04 1001.18,174.95 997.98,178.31C993.19,183.33 994.62,189.8 994.39,195.81C994.29,198.35 994.13,200.75 992.89,203.02C990.05,208.22 986.1,209.43 980.87,206.69C977.67,205.02 974.71,203.08 970.77,202.83C967.87,202.64 965.7,200.23 964.21,197.44C960.35,190.23 956.12,183.46 948.25,179.58C944.69,177.83 943.52,173.29 940.9,170.29C937.95,166.92 935.29,163.28 932.19,160.06C926.41,154.06 927.46,146.64 927.45,139.41C927.45,134.51 928.17,129.64 927.72,124.7C927.58,123.1 926.69,120.04 930.54,120.23C931.87,120.3 932.26,118.27 932.1,117.52C931.42,114.37 933.64,112.09 935.54,112.1C938.88,112.12 942.99,110.69 945.63,114.37C946.39,115.43 947.06,116.54 947.79,117.67ZM938.52,119.59C935.76,119.19 932.6,119.82 933.29,122.56C934.39,126.9 932.72,131.77 936.19,135.7C938.46,138.28 939.85,141.61 941.99,144.34C947.22,151.02 950.77,158.87 958.48,163.84C962.22,166.26 965.97,170.51 966.72,175.93C966.82,176.69 968.71,177.64 968.61,177.24C968.14,175.31 974.16,173.67 968.9,171.73C968.04,171.41 967.2,170.66 966.68,169.88C961.58,162.23 956.74,154.39 951.41,146.9C948.81,143.25 947,139.18 944.45,135.64C943.04,133.68 941.26,131.95 942.19,129.83C942.96,128.07 942.6,126.39 943,124.71C943.84,121.14 942.7,118.73 938.53,119.58L938.52,119.59Z" style="fill-rule:nonzero;"/>
        <g transform="matrix(1,0,0,1,0,-12.642)">
            <path d="M1479.03,237.81C1479.28,236.33 1479.87,236.07 1480.55,235.95C1489.16,234.44 1494.28,230.27 1495.12,221.65C1496.09,211.72 1499.6,202.29 1499.79,192.24C1500.01,180.76 1501.18,169.26 1497.5,158.05C1496.52,160.65 1496.83,163.46 1496.98,166.15C1497.54,175.91 1495.77,185.51 1495.19,195.19C1494.62,204.85 1490.44,213.72 1488.12,223C1486.88,227.96 1482.89,230.07 1477.65,231.24C1471.2,232.67 1464.43,232.41 1458.19,235.11C1457.03,235.61 1454.58,234.48 1453.44,233.37C1451.23,231.21 1450.15,232.6 1448.51,233.96C1450.44,235.73 1453.16,234.33 1454.58,236.3C1450.23,237.28 1449.01,236.94 1446.86,233.55C1446.24,232.58 1445.54,232.29 1444.59,231.95C1441.47,230.84 1439.88,228.23 1439.2,225.27C1436.45,213.24 1435.96,201.05 1436.08,188.71C1436.2,176.31 1438.68,163.97 1436.65,151.48C1435.94,147.1 1435.45,143.31 1431.82,140.14C1427.21,136.13 1427.45,134.23 1431.74,129.98C1438.38,123.4 1444.1,124.31 1448.27,132.49C1450.62,137.11 1451.72,141.77 1449.72,146.82C1449.3,147.88 1448.86,149.13 1449.04,150.19C1451.2,162.89 1447.38,175.13 1446.05,187.54C1445.06,196.76 1445.69,205.62 1448.02,214.51C1448.91,217.89 1450.6,219.51 1454.13,220.67C1461.53,223.11 1468.68,223.6 1476.13,221.37C1478.81,220.56 1480.31,219.12 1481.12,216.45C1484.4,205.69 1488.36,195 1489.12,183.75C1490.42,164.71 1493.44,145.51 1487.04,126.71C1486.9,126.3 1486.58,125.63 1486.73,125.48C1490.86,121.4 1492.25,114.8 1498.59,112.74C1503.26,111.22 1507.45,113.16 1509.47,117.95C1511.57,122.91 1511.41,128.14 1511.88,133.4C1512.51,140.48 1513.64,147.53 1514.08,154.66C1515.6,179.62 1513.24,204 1503.79,227.42C1502.25,231.23 1500.31,233.75 1495.9,234.65C1490.33,235.79 1485.2,239.16 1479.03,237.81Z" style="fill-rule:nonzero;"/>
        </g>
        <g transform="matrix(1,0,0,1,12.1833,9.13749)">
            <path d="M147.8,137.1L147.8,127.23C151.62,132.09 152.1,136.94 151.62,141.4C150.75,149.36 152.45,156.42 155.22,163.85C157.14,168.99 157.44,175.04 158.04,180.67C158.69,186.72 160.41,192.15 162.66,197.72C165.27,204.18 161.68,210.23 159.6,216.18C158.84,218.36 156.58,217.83 155.05,216.37C153.26,214.66 151.62,214.27 148.96,214.91C143.86,216.13 141.13,213.77 140.87,208.52C140.77,206.49 140.99,204.92 138.25,204.89C136.03,204.87 135.5,202.87 135.56,201.32C135.72,197.66 134.84,194.1 135.66,190.3C136.89,184.55 134.84,178.89 133.5,173.25C131.65,165.48 130.42,157.83 134.14,149.95C136.13,145.74 134.26,140.75 133.59,136.22C132.15,126.4 129.75,116.71 128.61,106.86C127.32,95.66 127.37,84.41 130.27,73.29C132.01,66.58 130.54,59.77 129.4,53.08C127.46,41.66 127.33,29.98 124.01,18.74C122.73,14.4 124.32,9.72 122.77,5.08C121.7,1.88 127.89,-1.29 131.22,0.54C135.25,2.75 137.16,6.23 136.83,10.83C136.42,16.58 137.22,22.02 140.34,27.02C142.49,30.47 140.44,33.92 139.61,37.1C138.61,40.89 139.08,44.24 140.15,47.77C141.79,53.16 143.43,58.56 144.8,64.02C145.65,67.43 145.68,70.9 143.61,74.1C141.25,77.76 140.54,82.15 141.27,86.07C143.2,96.51 141.99,107.18 144.64,117.64C146.2,123.81 145.14,130.66 147.78,137.11L147.8,137.1Z" style="fill-rule:nonzero;"/>
        </g>
        <g transform="matrix(1.11963,0.0655382,-0.0669191,1.14322,-33.0044,-30.2335)">
            <path d="M310.77,126.77C312.4,124.1 314.17,121.5 315.6,118.73C316.77,116.45 316.43,114.33 314.14,112.63C311.39,110.59 310.88,105.63 312.93,103.05C313.3,102.58 313.75,102.34 314.05,102.67C316.82,105.74 317.12,102.04 317.38,101.12C318.86,95.93 322.34,94.7 327.16,95.51C331.87,96.3 334.5,99.25 335.38,103.72C337.98,116.89 341.46,129.83 344.87,142.8C346.49,148.98 345.5,155.37 345.54,161.65C345.56,164.9 346.77,168.19 345.58,171.53C343.9,170.93 344.74,169 343.43,168.31C343.3,168.43 342.98,168.57 342.97,168.73C342.32,182.57 344.24,196.22 346.81,209.71C349.18,222.14 349.12,234.75 350.88,247.18C352.01,255.18 354.65,262.97 355.76,270.97C358.24,288.84 361.78,306.5 365.04,324.22C365.46,326.47 366.09,328.65 367.67,330.56C370.17,333.58 369.01,337.18 368.73,340.6C368.62,341.93 367.61,342.09 366.58,342.1C364.08,342.1 361.58,342.1 359.09,342.04C357.87,342.01 357.07,341.94 357.31,340.08C358.71,329.44 355.7,319.16 354.16,308.81C351.83,293.17 348.69,277.64 345.83,262.08C345.6,260.82 345.97,258.26 343,260.29C342.36,260.73 340.49,256.89 341.11,256.52C346.8,253.21 342.64,248.61 342.43,245C342.06,238.69 341.46,232.21 340.13,226.11C339.05,221.13 341.82,214.82 336.14,211.05C337.82,207.59 335.87,203.62 337.6,200.27C338.06,199.37 337.92,199.26 337.61,198.45C335.59,193.25 332.62,188.07 336.27,182.37C336.76,181.61 335.92,181.42 335.44,181C332.47,178.39 333.09,174.61 332.95,171.37C332.79,167.73 332.62,164.24 330.45,161.3C328.93,159.24 327.89,157.61 329.99,155.32C331.09,154.12 331.4,152.51 330.23,151C329.8,153.6 325.01,148.29 325.89,153.38C325.95,153.71 325.68,155.18 324.92,154.31C323.05,152.15 318.94,154.38 318.03,150.51C319.65,149.48 321.56,153 321.93,151.25C322.36,149.19 323.93,146.63 322.24,144.46C320.6,142.34 320,139.85 319.05,137.31C318.83,142.84 315.88,146.1 311.27,148.64C309.3,149.72 307.76,150.69 305.97,149.24C304.07,147.7 306.42,146.35 306.56,144.86C306.6,144.42 306.4,143.96 306.31,143.49C304.17,143.98 305.2,146.7 303.3,147.25C301.77,146.82 301.95,145.69 302.21,144.49C302.51,143.09 302.6,142.11 300.57,143.01C298.7,143.84 297.75,142.31 297.28,140.9C295.81,136.43 301.43,127.16 306.82,125.62C302.4,121.96 306.43,119.65 307.91,116.67C309.923,121.077 310.877,124.457 310.77,126.81L310.77,126.77Z" style="fill-rule:nonzero;"/>
        </g>
        <path d="M1027.44,57.69C1028.06,54.74 1033.08,52.78 1027.55,51.04C1027.52,51.04 1027.61,50.11 1027.87,49.81C1028.68,48.87 1029.81,48.15 1030.92,49.03C1034.67,52.01 1039,51.26 1042.8,50.1C1046.82,48.88 1045.16,55.04 1049.13,53.99C1050.28,53.69 1053.73,57.09 1056.76,56.57C1062.7,55.56 1068.94,57.45 1074.69,54.7C1075.2,54.46 1076.12,54.49 1076.57,54.8C1083.35,59.52 1091.53,58.47 1098.87,58.8C1103.03,58.99 1107.98,59.03 1112.47,58.06C1112.91,57.97 1113.39,57.99 1113.83,58.06C1116.76,58.51 1118.96,62.73 1122.71,59.49C1123.94,58.43 1124.06,63.97 1126.77,60.83C1127.49,60 1130.87,62.4 1129.43,58.71C1131.42,58.34 1133.87,55.82 1135.01,59.68C1136.46,64.58 1139.04,66.98 1144.7,66.29C1149.64,65.69 1155.48,71.12 1156.39,75.94C1157.23,80.38 1154.82,84.12 1149.5,86.75C1146.91,88.03 1144.2,88.69 1141.32,88.52C1124.56,87.52 1108.02,84.82 1091.39,82.66C1084.6,81.78 1077.53,78.89 1070.43,81.98C1069.34,82.45 1067.71,82.29 1066.53,81.87C1058.11,78.82 1049.04,79.05 1040.48,76.69C1036.66,75.64 1032.95,76.45 1029.42,78.33C1027.83,79.18 1026.03,79.77 1024.26,80.14C1018.29,81.38 1013.36,77.17 1013.48,71.09C1013.51,69.46 1013.48,67.82 1013.41,66.19C1013.29,63.74 1014.31,61.8 1016.58,61.13C1025.33,58.55 1034.25,57.53 1043.11,60.29C1049.23,62.2 1055.23,62.58 1061.39,60.54C1049.94,61.27 1039.36,53.97 1027.42,57.7L1027.44,57.69ZM1127.65,68.76C1121.9,66.14 1115.43,69.1 1109.89,65.35C1114.99,71.62 1121.38,70.02 1127.65,68.76ZM1129.78,68.47C1133.7,68.31 1137.45,71.45 1142.77,69.61C1137.74,67.37 1133.71,68.43 1129.78,68.47Z" style="fill-rule:nonzero;"/>
        <g transform="matrix(1.3591,0,0,0.976303,-214.418,9.48113)">
            <path d="M693.12,181.71C693.6,174.48 690.17,168.19 688.38,161.51C686.02,152.71 683.84,143.9 683.73,134.71C683.65,127.97 681.05,121.74 679.1,115.47C677.8,111.29 677.57,106.73 674.57,102.78C673.59,101.49 672.93,95.77 676.2,93.23C679.16,90.92 682.76,91.51 686.14,92.44C697.52,95.55 707.15,102.25 717.48,107.55C722.77,110.26 727.27,113.53 731,118.06C734.03,121.74 736.57,125.33 735.02,130.63C734.36,132.88 735.17,135.53 736.47,137.74C738.94,141.92 740.18,146.61 741.97,151.07C742.92,153.44 742.63,155.6 741.32,157.71C739.6,160.49 737.84,160.69 735.37,158.33C729.2,152.42 725.23,145.02 721.57,137.56C717.58,129.42 711.22,123.96 703.83,119.34C701.99,118.19 699.62,116.78 699.43,120.88C694.32,120.13 693.43,125.22 693.79,127.24C694.76,132.82 693.83,138.42 695.16,144C698.05,156.07 700.23,168.3 702.71,180.47C702.87,181.26 702.82,182.46 703.31,182.77C710.33,187.18 706.24,193.06 705.61,198.55C705.01,203.81 705.23,209.13 707.18,214.13C708.5,217.51 709.66,220.77 709.81,224.5C709.89,226.45 709.91,227.76 708.08,228.47C706.26,229.17 704.58,228.32 703.79,226.85C702.47,224.39 700.96,221.73 700.7,219.05C699.94,211.36 696.87,204.37 694.96,197.05C693.69,192.17 692.78,186.91 693.09,181.7L693.12,181.71Z" style="fill-rule:nonzero;"/>
        </g>
        <g transform="matrix(1.11963,0.0655382,-0.0660345,1.12811,-33.3071,-25.0637)">
            <path d="M327.23,25.35C332.03,25.22 334.96,27.53 336.65,31.25C339.99,38.62 337.72,50.87 332.23,56.45C328.91,59.83 316.26,59.39 312.42,55.24C309.51,52.1 305.11,50.02 304.4,45C304.21,43.65 303.56,42.15 304.76,41.38C308.43,39.04 310.02,34.77 313.53,32.34C314.83,31.44 316.17,30.28 316.79,32.82C317.05,33.87 316.43,35.45 318.38,34.93C319.8,34.55 320.84,32.58 320.45,31.9C316.56,25.04 323.53,27.24 325.7,25.54C326.14,25.2 326.99,25.37 327.22,25.35L327.23,25.35Z" style="fill-rule:nonzero;"/>
        </g>
        <path d="M1233.12,254.89C1241.13,245.08 1243.93,230.56 1259.55,225.81C1252.38,234.38 1246.24,242.04 1239.7,249.35C1237.85,251.42 1236.22,254.24 1232.95,254.74L1233.11,254.89L1233.12,254.89Z" style="fill-rule:nonzero;"/>
    </g>
</svg>
