<?xml version="1.0" encoding="UTF-8" standalone="no"?>
<!DOCTYPE svg PUBLIC "-//W3C//DTD SVG 1.1//EN" "http://www.w3.org/Graphics/SVG/1.1/DTD/svg11.dtd">
<svg width="100%" height="100%" viewBox="0 0 56 56" version="1.1" xmlns="http://www.w3.org/2000/svg" xmlns:xlink="http://www.w3.org/1999/xlink" xml:space="preserve" xmlns:serif="http://www.serif.com/" style="fill-rule:evenodd;clip-rule:evenodd;stroke-linejoin:round;stroke-miterlimit:2;">
    <g transform="matrix(2.77778,0,0,2.77778,0,0)">
        <g transform="matrix(0.0814533,0.0214619,-0.0214619,0.0814535,-81.736,-27.1976)">
            <path d="M1179.62,200.42C1178.73,199.91 1179.24,204.62 1177.22,201.54C1176.57,200.55 1175.95,199.35 1174.58,200.55C1173.19,201.77 1173.99,203.21 1174.95,203.98C1177.47,205.98 1177.32,208.99 1178.19,211.6C1178.53,212.6 1178.85,214.11 1177.22,214.46C1176.13,214.69 1175.59,213.82 1175.16,212.79C1168.94,197.9 1156.2,187.57 1147.91,174.12C1146.6,172 1145.66,172.11 1144.01,174.21C1139.2,180.35 1137.29,187.86 1133.89,194.65C1130.22,201.97 1124.06,207.08 1118.77,212.93C1115.62,216.42 1110.59,215.33 1106.39,215.55C1098.53,215.96 1090.88,215.15 1084.06,210.28C1079.98,207.37 1077.65,203.03 1074.14,199.64C1067.69,193.39 1063.58,185.05 1058.54,177.56C1057.68,176.28 1056.89,174.95 1057.09,173.42C1057.75,168.48 1055.37,166.12 1050.71,165.49C1049.5,165.33 1047.98,164.71 1047.99,163.64C1048.05,160.15 1046.19,157.37 1045.1,154.31C1044.8,153.46 1045.03,152.5 1045.9,152.24C1047.47,151.77 1047.26,153.12 1047.43,154.03C1047.74,155.65 1048.33,157.26 1048.34,158.88C1048.37,162.91 1051.67,164.72 1054.13,163.96C1057.29,162.98 1056.69,165.31 1057.63,166.63C1058.56,161.6 1058.6,161.47 1055.12,160.32C1052.2,159.36 1055.49,157.58 1054.38,156.18C1053.71,155.35 1055.41,154.17 1056.09,154.58C1060.3,157.12 1058.06,153.55 1058,152.52C1057.93,151.42 1057.12,150.36 1057.02,149.25C1056.68,145.31 1054.41,144.5 1051.06,145.42C1050.52,145.57 1050.15,146.5 1049.42,145.92C1048.85,145.47 1048.98,144.94 1049.26,144.22C1051.03,139.61 1050.78,134.77 1050.03,130.08C1049.66,127.74 1049.81,126.12 1051.09,124.13C1056.6,115.53 1065.03,110.43 1073.86,106.53C1088.84,99.91 1103.89,99.73 1117.82,109.92C1119.71,111.31 1121.06,111.63 1123.4,110.22C1132.03,105.03 1142.67,107.65 1147.29,116.81C1151.98,126.08 1155.61,135.91 1159.35,145.63C1162.4,153.56 1164.21,161.899 1169.37,168.749C1175.02,176.249 1179.53,184.51 1183.24,193C1184.88,196.77 1187.24,199.89 1190.3,202.44C1192.78,204.51 1194.08,206.56 1192.29,209.69C1191.89,210.38 1191.98,211.35 1191.6,212.06C1190.21,214.62 1190.69,218.83 1186.15,218.69C1183.42,218.61 1179.64,213.51 1179.34,209.87C1179.21,208.25 1178.82,206.62 1178.91,205.02C1178.99,203.65 1181.31,202.88 1179.59,200.42L1179.62,200.42ZM1066.01,124.87C1071.15,125.62 1074.34,123.7 1077.51,121.62C1081.68,118.87 1085.22,119.53 1088.06,123.73C1079.72,124.01 1072.18,126.51 1065.3,130.93C1060.74,133.86 1060.3,139.41 1064.24,142.91C1065.48,144.01 1066.71,145.12 1068.03,146.12C1068.91,146.78 1069.61,147.52 1069.2,148.59C1068.73,149.81 1067.5,149.59 1066.64,149.22C1064.24,148.17 1062.44,148.78 1062.62,151.41C1062.9,155.62 1063.05,160.06 1067.85,162.35C1071.8,164.23 1075.34,166.91 1077.42,170.82C1080.69,176.95 1083.77,183.19 1086.54,189.56C1090.07,197.67 1096.1,199.63 1103.43,194.68C1103.82,194.42 1104.33,194.34 1104.68,194.21C1106.54,195.29 1102.87,197.64 1105.7,198.25C1107.6,198.67 1108.6,197.07 1109.6,195.73C1111.76,192.8 1115.06,190.97 1117.4,188.43C1120.68,184.89 1120.42,187.43 1121.02,189.98C1127.36,179.08 1130.42,167.56 1131.33,155.38C1131.67,150.79 1129.94,145.91 1126.77,144.17C1122.15,141.65 1120.54,137.23 1117.2,134.09C1113.38,130.5 1109.14,127.47 1104.26,125.33C1102.61,124.61 1101.43,122.73 1099.15,124.56C1099.92,121.25 1096.89,114.59 1094.84,114.47C1084.21,113.83 1074.5,115.94 1066.02,124.89L1066.01,124.87ZM1158.22,171.89C1159.28,174.88 1159.34,177.56 1162.79,177.35C1160.78,182.97 1166.69,184.53 1168.4,188.24C1168.95,189.43 1169.75,190.6 1169.94,191.85C1170.44,195.13 1171.32,197.86 1175.35,197.96C1176.6,197.99 1177.38,201 1178.83,198.83C1179.68,197.56 1178.71,196.17 1177.89,194.61C1175.34,189.78 1169.79,187.66 1167.77,182.37C1166.16,178.14 1163.03,174.82 1158.22,171.88L1158.22,171.89ZM1160.12,171.59C1160.32,167.36 1155.78,165.37 1158.52,161.99C1158.58,161.92 1157.96,161.31 1157.66,160.95C1157.45,161.67 1157.25,162.39 1156.97,163.38C1155.46,161.74 1155.03,159.87 1153.05,158.89C1151.48,158.11 1150.02,156.19 1149.49,154.47C1148.59,151.53 1148.91,151.43 1146.31,150.84C1149.93,158.08 1151.72,166.4 1160.11,171.58L1160.12,171.59ZM1080.62,196.92C1080.68,195.39 1079.29,194.67 1080.04,192.91C1081.42,189.68 1078.35,187.52 1076.46,185.36C1074.86,183.53 1075.45,188.9 1073.59,186.53C1072.58,185.24 1072.89,183.08 1071.26,181.99C1069.78,181 1070,182.87 1070.03,183.02C1070.5,186.09 1071.17,189.19 1073.54,191.39C1075.65,193.34 1078.07,194.95 1080.62,196.92ZM1066.07,178.64C1065.92,175.34 1068.5,172.24 1066.48,168.93C1065.74,167.72 1064.34,166.3 1063.5,167.68C1062.62,169.13 1059.82,170.98 1060.94,171.87C1063.33,173.77 1063.65,176.72 1066.07,178.65L1066.07,178.64ZM1142.59,142.84C1143.12,139.73 1143.65,136.17 1141.59,135.45C1139.21,134.62 1139.02,134.6 1140.01,132.43C1140.72,130.87 1138.78,130.82 1137.82,130.47C1136.85,130.11 1135.93,130.81 1136.39,131.7C1138.27,135.31 1139.09,139.57 1142.59,142.85L1142.59,142.84Z" style="fill-rule:nonzero;"/>
        </g>
        <g transform="matrix(0.079554,-0.00302225,0.00411497,0.108317,-64.0861,-1.2361)">
            <path d="M947.79,117.67C952.39,113.05 954.42,113.84 959.39,122.26C956.21,122.57 954.03,123.54 957.29,126.69C957.62,127.01 958.03,127.8 957.89,128C954.7,132.44 959.53,135.68 959.63,139.64C959.68,141.63 960.72,143.66 962.47,144.71C967.07,147.48 969.01,151.92 970.81,156.61C971.58,158.61 973.06,160.25 974.86,161.57C976.03,162.44 976.96,163.18 978.11,161.57C981.81,156.38 987.78,154.12 992.66,150.44C996.32,147.68 999.28,144.48 1001.53,140.51C1003.57,136.91 1005.73,133.66 1010.45,132.5C1011.58,132.22 1013.71,128.86 1015.06,126.77C1016.75,124.17 1020.24,122.55 1019.93,118.67C1019.9,118.29 1021.37,117.28 1021.84,117.44C1026.19,118.94 1028.91,115.83 1032.06,114C1038.89,110.06 1045.95,112.46 1048.08,119.56C1048.82,122.03 1048.97,124.74 1047.08,126.65C1043.88,129.88 1043.27,132.261 1043.4,136.911C1040.66,135.431 1040.21,134.53 1039.71,132.22C1039.48,131.15 1040.13,129.57 1038.76,129.15C1037.3,128.71 1035.69,129.33 1034.68,130.44C1033.81,131.4 1033.24,132.56 1032.02,133.27C1025.01,137.38 1020.7,143.23 1019.99,151.55C1019.31,159.5 1012.69,163.46 1007.97,168.62C1004.85,172.04 1001.18,174.95 997.98,178.31C993.19,183.33 994.62,189.8 994.39,195.81C994.29,198.35 994.13,200.75 992.89,203.02C990.05,208.22 986.1,209.43 980.87,206.69C977.67,205.02 974.71,203.08 970.77,202.83C967.87,202.64 965.7,200.23 964.21,197.44C960.35,190.23 956.12,183.46 948.25,179.58C944.69,177.83 943.52,173.29 940.9,170.29C937.95,166.92 935.29,163.28 932.19,160.06C926.41,154.06 924.264,142.495 924.254,135.265C924.254,130.365 926.042,128.388 925.592,123.448C925.452,121.848 926.69,120.04 930.54,120.23C931.87,120.3 932.26,118.27 932.1,117.52C931.42,114.37 933.64,112.09 935.54,112.1C938.88,112.12 942.99,110.69 945.63,114.37C946.39,115.43 947.06,116.54 947.79,117.67ZM938.52,119.59C935.76,119.19 932.6,119.82 933.29,122.56C934.39,126.9 932.72,131.77 936.19,135.7C938.46,138.28 939.85,141.61 941.99,144.34C947.22,151.02 950.77,158.87 958.48,163.84C962.22,166.26 965.97,170.51 966.72,175.93C966.82,176.69 968.71,177.64 968.61,177.24C968.14,175.31 974.16,173.67 968.9,171.73C968.04,171.41 967.2,170.66 966.68,169.88C961.58,162.23 956.74,154.39 951.41,146.9C948.81,143.25 947,139.18 944.45,135.64C943.04,133.68 941.26,131.95 942.19,129.83C942.96,128.07 942.6,126.39 943,124.71C943.84,121.14 942.7,118.73 938.53,119.58L938.52,119.59Z" style="fill-rule:nonzero;"/>
        </g>
        <g transform="matrix(0.0653857,0,0,0.0653859,-65.5198,-2.01873)">
            <path d="M1027.44,57.69C1028.06,54.74 1033.08,52.78 1027.55,51.04C1027.52,51.04 1027.61,50.11 1027.87,49.81C1028.68,48.87 1029.81,48.15 1030.92,49.03C1034.67,52.01 1039,51.26 1042.8,50.1C1046.82,48.88 1045.16,55.04 1049.13,53.99C1050.28,53.69 1053.73,57.09 1056.76,56.57C1062.7,55.56 1068.94,57.45 1074.69,54.7C1075.2,54.46 1076.12,54.49 1076.57,54.8C1083.35,59.52 1091.53,58.47 1098.87,58.8C1103.03,58.99 1107.98,59.03 1112.47,58.06C1112.91,57.97 1113.39,57.99 1113.83,58.06C1116.76,58.51 1118.96,62.73 1122.71,59.49C1123.94,58.43 1124.06,63.97 1126.77,60.83C1127.49,60 1130.87,62.4 1129.43,58.71C1131.42,58.34 1133.87,55.82 1135.01,59.68C1136.46,64.58 1139.04,66.98 1144.7,66.29C1149.64,65.69 1155.48,71.12 1156.39,75.94C1157.23,80.38 1154.82,84.12 1149.5,86.75C1146.91,88.03 1144.2,88.69 1141.32,88.52C1124.56,87.52 1108.02,84.82 1091.39,82.66C1084.6,81.78 1077.53,78.89 1070.43,81.98C1069.34,82.45 1067.71,82.29 1066.53,81.87C1058.11,78.82 1049.04,79.05 1040.48,76.69C1036.66,75.64 1032.95,76.45 1029.42,78.33C1027.83,79.18 1026.03,79.77 1024.26,80.14C1018.29,81.38 1013.36,77.17 1013.48,71.09C1013.51,69.46 1013.48,67.82 1013.41,66.19C1013.29,63.74 1014.31,61.8 1016.58,61.13C1025.33,58.55 1034.25,57.53 1043.11,60.29C1049.23,62.2 1055.23,62.58 1061.39,60.54C1049.94,61.27 1039.36,53.97 1027.42,57.7L1027.44,57.69ZM1127.65,68.76C1121.9,66.14 1115.43,69.1 1109.89,65.35C1114.99,71.62 1121.38,70.02 1127.65,68.76ZM1129.78,68.47C1133.7,68.31 1137.45,71.45 1142.77,69.61C1137.74,67.37 1133.71,68.43 1129.78,68.47Z" style="fill-rule:nonzero;"/>
        </g>
    </g>
</svg>
